<svg width="168" height="51" viewBox="0 0 168 51" fill="none" xmlns="http://www.w3.org/2000/svg">
<g clip-path="url(#clip0_156_193)">
<path d="M3.40945 34.5815C5.07938 34.5815 6.19267 33.8857 6.74932 33.0508C7.30596 32.2158 7.65386 30.9634 7.72344 29.363L8.90631 1.73951C8.97589 0.765386 9.74128 0 10.6458 0H45.5753C46.4798 0 47.2452 0.765386 47.2452 1.73951V43.0704C47.2452 44.0445 46.4798 44.8099 45.5753 44.8099H37.6431C36.7385 44.8099 35.9732 44.0445 35.9732 43.0704V12.2462C35.9732 11.2721 35.2078 10.5067 34.3032 10.5067H21.1525C20.2479 10.5067 19.4826 11.2721 19.4826 12.1766L18.7172 30.6154C18.578 32.9116 18.2997 34.999 17.8126 36.7385C17.3256 38.4781 16.5602 39.9392 15.586 41.1221C14.5423 42.305 13.2203 43.2095 11.5504 43.8358C9.88044 44.462 7.86261 44.7403 5.42728 44.7403C4.45316 44.7403 3.47903 44.6707 2.57448 44.6011C2.22658 44.6011 1.80909 44.5316 1.46119 44.5316C0.626225 44.3924 0 43.627 0 42.792V36.3211C0 35.3469 0.765386 34.512 1.73951 34.5815C2.43532 34.512 2.99196 34.5815 3.40945 34.5815Z" fill="white"/>
<path d="M113.068 49.263L112.999 35.834C112.999 34.8599 113.764 34.0945 114.669 34.0945H117.243C117.661 34.0945 118.078 33.9553 118.356 33.6074C118.913 33.0508 119.331 32.2158 119.609 31.1025C119.957 29.7109 120.096 27.9018 120.235 25.6752L121.418 1.60035C121.488 0.695806 122.183 -0.0695801 123.088 -0.0695801H159.339C160.244 -0.0695801 161.009 0.695806 161.009 1.66993V32.2158C161.009 33.1899 161.775 33.9553 162.679 33.9553H165.741C166.645 33.9553 167.411 34.7207 167.411 35.6948L167.48 49.1239C167.48 50.098 166.715 50.8634 165.81 50.8634H158.713C157.809 50.8634 157.043 50.098 157.043 49.1239V46.2711C157.043 45.2969 156.278 44.5316 155.373 44.5316L124.827 44.6707C123.923 44.6707 123.158 45.4361 123.158 46.4102V49.1239C123.158 50.098 122.392 50.8634 121.488 50.8634H114.669C113.834 51.0026 113.068 50.2372 113.068 49.263ZM149.598 32.2854V12.4549C149.598 11.4808 148.833 10.7154 147.928 10.7154H133.734C132.829 10.7154 132.133 11.4808 132.064 12.3853L131.438 25.1882C131.368 26.9973 131.159 28.5976 130.951 30.0588C130.881 30.685 130.742 31.3113 130.603 31.8679C130.324 32.9812 131.159 34.0945 132.203 34.0945H147.928C148.833 34.0945 149.598 33.2595 149.598 32.2854Z" fill="white"/>
<path d="M86.2104 0H75.2167C64.71 0 56.2212 8.90631 56.2212 19.9V26.7189C56.2212 30.8242 57.4041 34.6511 59.4219 37.7823C61.4397 40.983 64.2925 43.4879 67.702 45.0186L72.0856 46.619L82.5226 50.2372C83.5664 50.4459 85.1667 50.933 86.6975 50.933C88.0891 51.0026 88.1587 51.0026 89.0632 50.8634L88.9936 46.4798L88.8545 34.5815L88.7153 23.9357C88.7153 17.3256 84.1926 12.0374 77.9303 12.0374H75.1471C72.2943 12.0374 69.859 13.7074 68.6065 16.0731C70.1373 12.8028 73.338 10.5067 77.0954 10.5067H84.6796C89.8286 10.5067 94.073 14.8902 94.073 20.3175V44.8795C100.683 41.7483 105.206 34.7903 105.206 26.7189V19.9C105.206 8.90631 96.7171 0 86.2104 0ZM84.4013 33.1204C85.2363 33.1204 85.9321 33.8162 85.9321 34.7207C85.9321 35.6253 85.2363 36.3211 84.4013 36.3211C83.5664 36.3211 82.8705 35.6253 82.8705 34.7207C82.8705 33.8162 83.5664 33.1204 84.4013 33.1204Z" fill="white"/>
</g>
<defs>
<clipPath id="clip0_156_193">
<rect width="167.55" height="51.0026" fill="white"/>
</clipPath>
</defs>
</svg>
