<svg width="600" height="600" viewBox="0 0 600 600" fill="none" xmlns="http://www.w3.org/2000/svg">
<path d="M12.3799 3.75562H25.4079L103.835 85.7975H127.817L58.7232 3.75562H71.7512L183.558 144.01H176.753L143.956 105.029H122.178L159.447 144.01H152.641L12.3799 3.75562Z" fill="#69C642"/>
<path d="M188.549 144.01L106.557 3.75562H122.631L223.29 144.01H216.031L200.54 123.613H184.595L195.744 144.01H188.549ZM189.392 108.72L145.123 50.1834H144.669L176.623 108.72H189.392Z" fill="#69C642"/>
<path d="M157.438 3.75562H184.984C200.54 3.75562 217.198 30.7576 226.92 60.1554C233.402 79.7107 232.689 89.3589 228.865 92.4023L229.318 93.6973C234.828 94.4096 243.643 105.159 248.763 121.153C253.236 135.01 251.939 144.075 243.319 144.075H228.152L157.438 3.75562ZM217.587 86.0565C222.448 86.0565 223.161 78.1567 217.911 64.17C212.726 50.3129 205.013 39.1107 198.272 39.1107H186.67L208.253 86.0565H217.587ZM237.42 132.096C242.735 132.096 243.124 127.239 240.402 119.728C237.032 110.468 230.874 102.763 225.559 102.763H216.031L229.513 132.096H237.42Z" fill="#69C642"/>
<path d="M235.346 3.75562L262.245 116.555H262.634L269.763 3.75562H281.43L292.773 144.01H285.967L276.764 70.1273H276.31L268.078 144.01H262.05L222.383 3.75562H235.346Z" fill="#69C642"/>
<path d="M337.366 39.6287H308.264L307.033 144.01H300.227L295.625 3.75562H341.839L337.366 39.6287Z" fill="#69C642"/>
<path d="M323.042 144.01L364.783 3.75562H380.858L357.783 144.01H350.524L353.052 123.613H337.107L330.237 144.01H323.042ZM354.996 108.72L362.32 50.1834H361.867L342.163 108.72H354.996Z" fill="#69C642"/>
<path d="M403.803 3.75562H461.165L442.044 39.6287H422.534L374.83 144.01H368.154L411.256 39.6287H391.747L403.803 3.75562Z" fill="#69C642"/>
<path d="M406.136 144.982C396.349 144.982 397.451 129.829 416.182 95.9637C444.572 44.6795 483.656 0 502.776 0C521.832 0 501.415 44.6795 461.424 95.9637C434.979 129.894 415.858 144.982 406.136 144.982ZM476.785 38.9812C466.48 38.9812 445.285 62.357 425.192 95.9637C410.155 121.088 408.081 132.29 414.627 132.29C421.173 132.29 434.007 121.088 452.479 95.9637C477.109 62.4218 487.091 38.9812 476.785 38.9812Z" fill="#69C642"/>
<path d="M545.62 3.75562H572.583C589.111 3.75562 564.481 37.1681 529.546 72.0699C502.712 98.8776 481.517 114.548 471.211 114.548H462.656L437.118 144.01H430.312L545.62 3.75562ZM485.536 97.5825C492.147 97.5825 504.462 87.7401 519.434 72.0699C536.805 53.8743 546.722 39.4992 538.166 39.4992H527.666L477.369 97.5825H485.536Z" fill="#69C642"/>
<path d="M159.058 150.356H165.54L188.225 174.12H202.225L182.197 150.356H188.744L225.365 196.331H220.892L207.864 180.855H194.707L209.485 196.331H205.013L159.058 150.356Z" fill="#69C642"/>
<path d="M228.605 196.331L206.05 150.356H214.087L251.421 196.331H246.689L239.559 187.913H229.513L233.337 196.331H228.605ZM234.698 182.279L218.365 162.983H218.105L226.92 182.279H234.698Z" fill="#69C642"/>
<path d="M231.457 150.356H245.198C252.976 150.356 259.134 157.414 261.986 165.897C264.06 172.113 262.828 175.351 260.3 176.387L260.495 176.84C263.736 177.099 268.078 180.92 270.023 186.942C271.838 192.51 270.282 196.331 264.643 196.331H254.661L231.457 150.356ZM254.337 174.25C257.189 174.25 258.291 171.66 256.671 167.192C255.115 162.983 252.069 159.81 248.439 159.81H242.282L248.958 174.315H254.337V174.25ZM261.856 191.345C265.226 191.345 265.939 189.402 264.837 186.424C263.541 182.927 260.56 180.078 257.319 180.078H251.615L256.8 191.345H261.856Z" fill="#69C642"/>
<path d="M270.347 150.356L278.643 185.193H278.902L287.523 150.356H293.356L297.051 196.331H292.579L289.143 169.005H288.884L280.782 196.331H276.828L263.865 150.356H270.347Z" fill="#69C642"/>
<path d="M322.264 159.875H306.773L306.32 196.331H301.847L300.356 150.356H323.431L322.264 159.875Z" fill="#69C642"/>
<path d="M316.885 196.331L334.903 150.356H342.94L339.7 196.331H334.968L335.292 187.913H325.246L321.681 196.331H316.885ZM335.487 182.279L336.2 162.983H335.94L327.709 182.279H335.487Z" fill="#69C642"/>
<path d="M354.413 150.356H383.062L378.006 159.875H367.635L350.978 196.331H346.57L361.608 159.875H351.237L354.413 150.356Z" fill="#69C642"/>
<path d="M371.589 196.784C365.172 196.784 363.876 190.438 370.941 177.682C379.95 161.364 393.627 149.514 403.155 149.514C412.618 149.514 410.479 161.429 397.775 177.682C387.793 190.438 378.006 196.784 371.589 196.784ZM396.284 159.745C390.84 159.745 382.867 166.609 376.256 177.682C370.682 187.006 371.006 191.474 375.154 191.474C379.367 191.474 385.589 187.006 392.395 177.682C400.562 166.609 401.793 159.745 396.284 159.745Z" fill="#69C642"/>
<path d="M425.192 150.356H438.673C446.905 150.356 442.498 159.163 432.062 169.653C423.053 178.653 413.849 184.416 407.497 184.416H402.247L391.941 196.331H387.469L425.192 150.356ZM412.423 178.265C416.312 178.265 421.368 174.833 426.294 169.653C431.673 164.019 433.618 159.875 429.081 159.875H423.507L407.627 178.265H412.423Z" fill="#69C642"/>
<path d="M207.865 199.115H212.207L222.837 210.252H232.624L223.226 199.115H227.569L245.717 221.908H242.411L235.476 213.684H226.078L233.92 221.908H230.615L207.865 199.115Z" fill="#69C642"/>
<path d="M248.18 221.908L239.17 199.115H244.485L265.162 221.908H261.597L257.319 217.311H249.995L251.68 221.908H248.18ZM254.532 214.397L245.652 204.878H245.458L248.958 214.397H254.532Z" fill="#69C642"/>
<path d="M256.087 199.115H265.226C270.412 199.115 274.041 202.288 275.338 206.238C276.31 209.216 275.273 210.835 273.393 211.353L273.458 211.548C275.727 211.677 278.578 213.62 279.616 216.728C280.588 219.706 279.162 221.778 275.014 221.778H267.625L256.087 199.115ZM269.31 210.317C271.319 210.317 272.356 209.022 271.514 206.885C270.736 204.878 268.921 203.389 266.523 203.389H262.31L265.486 210.317H269.31ZM273.328 219.188C275.791 219.188 276.44 218.152 275.921 216.534C275.273 214.72 273.328 213.231 270.995 213.231H266.912L269.634 219.124H273.328V219.188Z" fill="#69C642"/>
<path d="M281.949 199.115L285.967 215.886H286.162L293.421 199.115H297.31L299.125 221.908H295.819L294.069 207.792H293.875L287.069 221.908H284.153L277.736 199.115H281.949Z" fill="#69C642"/>
<path d="M316.82 203.453H306.255L306.06 221.908H302.755L302.042 199.115H317.403L316.82 203.453Z" fill="#69C642"/>
<path d="M313.903 221.908L324.987 199.115H330.301L330.885 221.908H327.32L327.061 217.311H319.736L317.403 221.908H313.903ZM326.931 214.397L326.413 204.878H326.218L321.292 214.397H326.931Z" fill="#69C642"/>
<path d="M337.95 199.115H357.006L354.672 203.453H347.607L339.181 221.908H335.876L343.524 203.453H336.459L337.95 199.115Z" fill="#69C642"/>
<path d="M354.672 222.167C349.876 222.167 348.191 218.67 351.885 212.066C356.293 204.166 364.006 198.727 370.293 198.727C376.58 198.727 377.098 204.101 370.941 212.066C365.756 218.735 359.469 222.167 354.672 222.167ZM367.182 203.389C363.487 203.389 358.885 206.626 355.644 212.066C352.793 216.857 353.506 219.253 356.617 219.253C359.728 219.253 363.617 216.857 367.182 212.066C371.135 206.626 370.941 203.389 367.182 203.389Z" fill="#69C642"/>
<path d="M385.136 199.115H394.08C399.59 199.115 398.488 203.13 393.562 208.051C389.089 212.519 383.645 215.497 379.043 215.497H375.284L369.709 221.908H366.404L385.136 199.115ZM381.441 212.325C384.228 212.325 387.08 210.576 389.543 208.051C392.136 205.331 392.589 203.389 389.478 203.389H385.654L377.941 212.26H381.441V212.325Z" fill="#69C642"/>
<path d="M232.17 223.462H235.411L241.569 229.937H249.152L243.708 223.462H246.948L257.773 237.06H255.115L250.837 231.945H243.513L248.374 237.06H245.717L232.17 223.462Z" fill="#69C642"/>
<path d="M259.782 237.125L255.698 223.527H259.717L273.328 237.125H270.541L267.625 234.276H261.856L262.634 237.125H259.782ZM265.68 232.398L259.912 226.764H259.782L261.337 232.398H265.68Z" fill="#69C642"/>
<path d="M268.337 223.462H275.208C279.097 223.462 281.625 225.275 282.402 227.542C282.986 229.29 282.078 230.261 280.588 230.585L280.652 230.714C282.402 230.779 284.477 231.945 285.125 233.887C285.708 235.765 284.541 237.06 281.171 237.06H275.273L268.337 223.462ZM277.476 230.002C279.032 230.002 279.875 229.225 279.421 227.93C278.967 226.765 277.736 225.923 275.856 225.923H272.68L274.56 230.002H277.476ZM280.004 235.377C281.949 235.377 282.532 234.729 282.208 233.758C281.819 232.657 280.393 231.751 278.578 231.751H275.402L277.088 235.377H280.004Z" fill="#69C642"/>
<path d="M287.782 223.462L290.116 233.305H290.245L296.338 223.462H299.255L300.357 237.06H297.699L296.597 228.448H296.468L290.699 237.06H288.366L284.542 223.462H287.782Z" fill="#69C642"/>
<path d="M314.033 225.923H306.06L305.931 237.06H303.273L302.82 223.462H314.357L314.033 225.923Z" fill="#69C642"/>
<path d="M312.153 237.125L320.061 223.527H324.079L325.7 237.125H322.913L322.524 234.276H316.755L315.005 237.125H312.153ZM322.135 232.398L321.292 226.764H321.162L317.727 232.398H322.135Z" fill="#69C642"/>
<path d="M329.783 223.462H344.107L342.811 225.923H337.431L332.311 237.06H329.718L334.32 225.923H328.94L329.783 223.462Z" fill="#69C642"/>
<path d="M344.626 237.254C340.802 237.254 339.181 235.053 341.385 230.973C343.978 226.311 349.228 223.268 353.894 223.268C358.626 223.268 359.728 226.311 356.098 230.973C352.987 235.053 348.45 237.254 344.626 237.254ZM352.209 225.923C349.422 225.923 346.246 227.801 344.366 231.038C342.616 233.952 343.459 235.441 345.857 235.441C348.32 235.441 351.107 233.952 353.246 231.038C355.644 227.801 354.996 225.923 352.209 225.923Z" fill="#69C642"/>
<path d="M365.108 223.462H371.848C375.997 223.462 375.867 225.729 373.015 228.642C370.358 231.297 366.598 233.11 363.033 233.11H360.052L356.617 237.125H353.959L365.108 223.462ZM364.395 231.168C366.534 231.168 368.478 230.132 369.969 228.642C371.46 227.088 371.524 225.923 369.126 225.923H366.209L361.672 231.168H364.395Z" fill="#69C642"/>
<path d="M596.306 12.6917V25.707L514.184 104.058V128.016L596.306 58.9252V71.9405L455.915 183.704V176.905L494.934 144.14V122.383L455.915 159.616V152.817L596.306 12.6917Z" fill="white"/>
<path d="M455.915 188.625L596.306 106.713V122.772L455.915 223.333V216.08L476.332 200.605V184.675L455.915 195.813V188.625ZM491.174 189.467L549.768 145.241V144.788L491.174 176.711V189.467Z" fill="white"/>
<path d="M596.305 157.544V185.064C596.305 200.604 569.277 217.246 539.851 226.959C520.277 233.434 510.619 232.722 507.573 228.901L506.276 229.355C505.563 234.859 494.804 243.665 478.794 248.78C464.924 253.248 455.85 251.953 455.85 243.341V228.189L596.305 157.544ZM513.86 217.699C513.86 222.556 521.767 223.268 535.768 218.023C549.638 212.843 560.851 205.137 560.851 198.403V186.812L513.86 208.375V217.699ZM467.841 237.449C467.841 242.758 472.702 243.147 480.22 240.427C489.489 237.06 497.202 230.909 497.202 225.599V216.08L467.841 229.549V237.449Z" fill="white"/>
<path d="M596.306 235.377L483.396 262.249V262.638L596.306 269.761V281.416L455.915 292.748V285.949L529.869 276.689V276.236L455.915 268.077V262.055L596.306 222.491V235.377Z" fill="white"/>
<path d="M560.398 337.298V308.224L455.915 306.929V300.13L596.306 295.532V341.701L560.398 337.298Z" fill="white"/>
<path d="M455.915 322.987L596.306 364.688V380.747L455.915 357.695V350.443L476.332 352.968V337.039L455.915 330.24V322.987ZM491.174 354.91L549.768 362.228V361.774L491.174 342.089V354.91Z" fill="white"/>
<path d="M596.306 403.734V461.041L560.398 441.938V422.448L455.915 374.79V368.055L560.398 411.116V391.625L596.306 403.734Z" fill="white"/>
<path d="M454.877 406C454.877 396.223 470.044 397.324 503.943 416.037C555.277 444.399 600 483.445 600 502.547C600 521.584 555.277 501.187 503.943 461.235C470.044 434.815 454.877 415.778 454.877 406ZM560.981 476.581C560.981 466.285 537.582 445.111 503.943 425.038C478.794 410.015 467.581 407.943 467.581 414.483C467.581 421.023 478.794 433.844 503.943 452.299C537.582 476.905 560.981 486.877 560.981 476.581Z" fill="white"/>
<path d="M596.306 545.414V572.351C596.306 588.863 562.861 564.257 527.925 529.355C501.091 502.547 485.406 481.373 485.406 471.077V462.53L455.915 437.082V430.283L596.306 545.414ZM502.323 485.323C502.323 491.928 512.175 504.231 527.86 519.189C546.073 536.542 560.462 546.45 560.462 537.902V527.412L502.323 477.164V485.323Z" fill="white"/>
<path d="M449.498 159.163V165.638L425.71 188.301V202.223L449.498 182.215V188.755L403.479 225.34V220.872L418.97 207.857V194.712L403.479 209.476V205.008L449.498 159.163Z" fill="white"/>
<path d="M403.479 228.642L449.498 206.108V214.138L403.479 251.435V246.708L411.905 239.586V229.549L403.479 233.369V228.642ZM417.608 234.794L436.923 218.476V218.217L417.608 227.024V234.794Z" fill="white"/>
<path d="M449.498 231.491V245.219C449.498 252.989 442.433 259.141 433.942 261.99C427.72 264.062 424.479 262.832 423.442 260.306L422.988 260.501C422.729 263.738 418.905 268.077 412.877 270.019C407.303 271.832 403.479 270.278 403.479 264.645V254.673L449.498 231.491ZM425.581 254.349C425.581 257.198 428.173 258.299 432.646 256.68C436.859 255.126 440.035 252.083 440.035 248.457V242.305L425.516 248.975V254.349H425.581ZM408.534 261.861C408.534 265.228 410.479 265.94 413.46 264.839C416.96 263.544 419.812 260.565 419.812 257.328V251.63L408.534 256.81V261.861Z" fill="white"/>
<path d="M449.498 270.343L414.627 278.632V278.891L449.498 287.503V293.33L403.479 297.021V292.553L430.831 289.122V288.863L403.479 280.768V276.818L449.498 263.868V270.343Z" fill="white"/>
<path d="M439.97 322.275V306.799L403.479 306.346V301.878L449.498 300.389V323.441L439.97 322.275Z" fill="white"/>
<path d="M403.479 316.901L449.498 334.902V342.931L403.479 339.694V334.967L411.905 335.29V325.254L403.479 321.692V316.901ZM417.608 335.42L436.923 336.132V335.873L417.608 327.65V335.42Z" fill="white"/>
<path d="M449.498 354.328V382.949L439.97 377.898V367.537L403.479 350.896V346.428L439.97 361.451V351.09L449.498 354.328Z" fill="white"/>
<path d="M403.09 371.552C403.09 365.141 409.442 363.846 422.211 370.904C438.544 379.905 450.405 393.568 450.405 403.087C450.405 412.541 438.479 410.404 422.211 397.712C409.377 387.675 403.09 377.963 403.09 371.552ZM440.164 396.158C440.164 390.719 433.294 382.754 422.211 376.149C412.877 370.581 408.405 370.904 408.405 375.049C408.405 379.258 412.877 385.474 422.211 392.273C433.229 400.432 440.164 401.662 440.164 396.158Z" fill="white"/>
<path d="M449.498 425.038V438.506C449.498 446.73 440.683 442.327 430.183 431.902C421.173 422.901 415.405 413.706 415.405 407.36V402.115L403.479 391.755V387.287L449.498 425.038ZM421.627 412.281C421.627 416.167 425.062 421.217 430.247 426.139C435.886 431.513 440.035 433.456 440.035 428.923V423.354L421.627 407.49V412.281Z" fill="white"/>
<path d="M400.691 207.922V212.26L389.543 222.88V232.657L400.691 223.268V227.606L377.876 245.737V242.435L386.108 235.506V226.117L377.876 234.017V230.715L400.691 207.922Z" fill="white"/>
<path d="M377.876 248.198L400.691 239.197V244.507L377.876 265.163V261.602L382.478 257.328V250.011L377.876 251.695V248.198ZM385.395 254.608L394.923 245.737V245.543L385.395 249.04V254.608Z" fill="white"/>
<path d="M400.691 256.098V265.228C400.691 270.408 397.515 274.034 393.562 275.329C390.58 276.301 388.96 275.265 388.441 273.387L388.247 273.451C388.117 275.718 386.173 278.567 383.061 279.603C380.08 280.574 378.006 279.15 378.006 275.005V267.624L400.691 256.098ZM389.478 269.372C389.478 271.379 390.775 272.415 392.913 271.574C394.923 270.797 396.414 268.983 396.414 266.588V262.379L389.478 265.552V269.372ZM380.598 273.322C380.598 275.783 381.636 276.43 383.256 275.912C385.071 275.265 386.562 273.322 386.562 270.991V266.911L380.663 269.631V273.322H380.598Z" fill="white"/>
<path d="M400.691 281.934L383.904 285.949V286.143L400.691 293.395V297.28L377.876 299.094V295.791L392.006 294.043V293.849L377.876 287.05V284.136L400.691 277.725V281.934Z" fill="white"/>
<path d="M396.349 316.771V306.281L377.876 306.087V302.785L400.691 302.072V317.419L396.349 316.771Z" fill="white"/>
<path d="M377.876 313.857L400.691 324.93V330.24L377.876 330.822V327.261L382.478 327.002V319.685L377.876 317.354V313.857ZM385.395 326.872L394.923 326.354V326.16L385.395 321.239V326.872Z" fill="white"/>
<path d="M400.691 337.945V356.983L396.349 354.652V347.594L377.876 339.176V335.873L396.349 343.514V336.456L400.691 337.945Z" fill="white"/>
<path d="M377.617 354.587C377.617 349.795 381.117 348.111 387.728 351.802C395.636 356.206 401.08 363.911 401.08 370.192C401.08 376.473 395.701 376.991 387.728 370.84C381.117 365.659 377.617 359.378 377.617 354.587ZM396.478 367.149C396.478 363.458 393.238 358.86 387.793 355.623C382.997 352.774 380.598 353.486 380.598 356.594C380.598 359.702 382.997 363.587 387.793 367.149C393.173 371.099 396.478 370.84 396.478 367.149Z" fill="white"/>
<path d="M400.691 385.021V393.956C400.691 399.46 396.673 398.36 391.747 393.438C387.275 388.97 384.293 383.531 384.293 378.934V375.113L377.876 369.545V366.242L400.691 385.021ZM387.469 381.394C387.469 384.179 389.219 387.028 391.747 389.488C394.469 392.079 396.414 392.532 396.414 389.424V385.603L387.534 377.898V381.394H387.469Z" fill="white"/>
<path d="M376.321 232.269V235.506L369.839 241.658V249.234L376.321 243.795V247.032L362.709 257.846V255.191L367.83 250.917V243.6L362.709 248.457V245.802L376.321 232.269Z" fill="white"/>
<path d="M362.709 259.789L376.321 255.709V259.724L362.709 273.322V270.538L365.561 267.624V261.861L362.709 262.638V259.789ZM367.376 265.681L373.015 259.918V259.789L367.376 261.343V265.681Z" fill="white"/>
<path d="M376.321 268.336V275.2C376.321 279.085 374.506 281.61 372.237 282.387C370.487 282.97 369.515 282.064 369.191 280.574L369.061 280.639C368.996 282.387 367.83 284.459 365.885 285.107C364.006 285.69 362.709 284.524 362.709 281.157V275.2L376.321 268.336ZM369.839 277.531C369.839 279.085 370.617 279.927 371.913 279.473C373.08 279.02 373.922 277.79 373.922 275.912V272.739L369.839 274.617V277.531ZM364.394 279.991C364.394 281.934 365.043 282.517 366.015 282.193C367.117 281.805 368.024 280.38 368.024 278.567V275.394L364.394 277.078V279.991Z" fill="white"/>
<path d="M376.321 287.762L366.469 290.093V290.222L376.321 296.309V299.223L362.709 300.324V297.669L371.33 296.568V296.439L362.709 290.676V288.345L376.321 284.524V287.762Z" fill="white"/>
<path d="M373.858 313.987V306.022L362.709 305.893V303.238L376.321 302.784V314.31L373.858 313.987Z" fill="white"/>
<path d="M362.709 312.109L376.321 320.009V324.023L362.709 325.642V322.858L365.561 322.469V316.642L362.709 314.893V312.109ZM367.376 322.146L373.015 321.304V321.174L367.376 317.742V322.146Z" fill="white"/>
<path d="M376.321 329.722V344.032L373.858 342.737V337.363L362.709 332.247V329.657L373.858 334.254V328.88L376.321 329.722Z" fill="white"/>
<path d="M362.515 344.55C362.515 340.73 364.719 339.111 368.802 341.312C373.469 343.903 376.515 349.148 376.515 353.81C376.515 358.537 373.469 359.637 368.802 356.011C364.719 352.968 362.515 348.37 362.515 344.55ZM373.922 352.126C373.922 349.342 372.043 346.169 368.802 344.291C365.885 342.543 364.395 343.385 364.395 345.78C364.395 348.241 365.885 351.025 368.802 353.162C372.043 355.558 373.922 354.975 373.922 352.126Z" fill="white"/>
<path d="M376.321 365.012V371.746C376.321 375.89 374.052 375.761 371.135 372.912C368.478 370.257 366.663 366.501 366.663 362.94V359.961L362.645 356.529V353.875L376.321 365.012ZM368.608 364.3C368.608 366.437 369.645 368.379 371.135 369.868C372.691 371.358 373.858 371.423 373.858 369.027V366.178L368.608 361.645V364.3Z" fill="white"/>
<path d="M587.685 595.014L574.657 595.079L496.1 513.166L472.119 513.231L541.407 595.079L528.379 595.143L416.118 455.148H422.923L455.85 494L477.628 493.935L440.294 455.083H447.1L587.685 595.014Z" fill="#69C642"/>
<path d="M411.191 455.213L493.508 595.273L477.433 595.338L376.45 455.277H383.71L399.201 475.675L415.145 475.61L403.997 455.213H411.191ZM410.478 490.438L454.942 548.845H455.396L423.312 490.373L410.478 490.438Z" fill="#69C642"/>
<path d="M442.692 595.403L415.145 595.467C399.589 595.532 382.867 568.595 373.015 539.197C366.469 519.642 367.182 509.994 371.006 506.95L370.552 505.655C364.978 505.008 356.163 494.194 350.978 478.265C346.505 464.407 347.737 455.407 356.357 455.342L371.524 455.277L442.692 595.403ZM382.284 513.231C377.422 513.231 376.709 521.131 382.024 535.118C387.274 548.975 394.987 560.112 401.728 560.112H413.33L391.617 513.231H382.284ZM362.385 467.257C357.07 467.257 356.681 472.113 359.404 479.624C362.839 488.819 368.996 496.59 374.311 496.525H383.839L370.293 467.257H362.385Z" fill="#69C642"/>
<path d="M364.783 595.597L337.561 482.862H337.172L330.301 595.726H318.634L306.903 455.472H313.708L323.172 529.29H323.625L331.662 455.407H337.69L377.682 595.597H364.783Z" fill="#69C642"/>
<path d="M262.698 559.983L291.801 559.918L292.773 455.536H299.579L304.505 595.791L258.291 595.921L262.698 559.983Z" fill="#69C642"/>
<path d="M276.699 455.536L235.281 595.921L219.207 595.985L241.893 455.666H249.152L246.624 476.128L262.569 476.063L269.374 455.601L276.699 455.536ZM244.874 490.891L237.68 549.428H238.133L257.708 490.827L244.874 490.891Z" fill="#69C642"/>
<path d="M196.327 595.985L138.965 596.115L158.021 560.177L177.53 560.112L224.911 455.666H231.652L188.808 560.177L208.318 560.112L196.327 595.985Z" fill="#69C642"/>
<path d="M193.605 454.759C203.392 454.759 202.355 469.911 183.688 503.842C155.428 555.191 116.474 600 97.3534 600C78.2976 600.065 98.5849 555.32 138.447 503.907C164.827 469.911 183.883 454.759 193.605 454.759ZM123.28 560.954C133.585 560.954 154.78 537.449 174.743 503.842C189.716 478.653 191.725 467.451 185.179 467.516C178.632 467.516 165.799 478.718 147.391 503.907C122.891 537.513 112.974 560.954 123.28 560.954Z" fill="#69C642"/>
<path d="M54.5101 596.374L27.5467 596.439C11.0187 596.503 35.5839 562.961 70.39 527.995C97.1589 501.122 118.289 485.387 128.595 485.387H137.15L162.558 455.86H169.364L54.5101 596.374ZM114.335 502.353C107.724 502.353 95.4089 512.26 80.5012 527.995C63.1306 546.255 53.2786 560.63 61.8343 560.63H72.3345L122.502 502.417L114.335 502.353Z" fill="#69C642"/>
<path d="M440.683 448.737H434.201L411.451 425.038L397.515 425.103L417.608 448.802H411.062L374.311 402.957H378.784L391.812 418.368L404.969 418.304L390.191 402.892H394.663L440.683 448.737Z" fill="#69C642"/>
<path d="M371.006 402.957L393.626 448.867H385.589L348.126 403.022H352.857L359.987 411.44H370.034L366.145 403.022L371.006 402.957ZM364.913 417.073L381.311 436.305H381.571L372.756 417.008L364.913 417.073Z" fill="#69C642"/>
<path d="M368.284 448.932L354.543 448.996C346.765 448.996 340.542 442.003 337.755 433.521C335.681 427.304 336.913 424.067 339.44 423.031L339.246 422.577C336.005 422.318 331.663 418.498 329.718 412.476C327.903 406.907 329.459 403.087 335.098 403.087H345.079L368.284 448.932ZM345.339 425.103C342.487 425.103 341.385 427.758 343.07 432.161C344.626 436.37 347.737 439.543 351.302 439.543H357.459L350.783 425.103H345.339ZM337.82 408.008C334.45 408.008 333.737 410.015 334.839 412.929C336.135 416.426 339.181 419.275 342.357 419.275H348.061L342.876 408.008H337.82Z" fill="#69C642"/>
<path d="M329.394 448.996L320.968 414.224H320.709L312.153 449.061H306.319L302.495 403.087H306.968L310.468 430.412H310.727L318.764 403.087H322.718L335.811 448.996H329.394Z" fill="#69C642"/>
<path d="M277.412 439.607L292.903 439.543L293.227 403.087H297.699L299.32 449.061L276.245 449.126L277.412 439.607Z" fill="#69C642"/>
<path d="M282.727 403.151L264.837 449.191H256.8L259.911 403.216H264.643L264.384 411.634H274.43L277.995 403.216L282.727 403.151ZM264.189 417.332L263.541 436.629H263.8L271.967 417.332H264.189Z" fill="#69C642"/>
<path d="M245.328 449.255L216.679 449.32L221.735 439.802H232.105L248.633 403.346H253.041L238.068 439.802H248.439L245.328 449.255Z" fill="#69C642"/>
<path d="M228.022 402.892C234.439 402.892 235.8 409.238 228.735 421.994C219.726 438.312 206.114 450.227 196.586 450.291C187.123 450.291 189.262 438.442 201.901 422.059C211.883 409.238 221.605 402.892 228.022 402.892ZM203.392 439.996C208.837 439.996 216.809 433.067 223.355 421.994C228.929 412.67 228.605 408.202 224.392 408.202C220.179 408.202 213.957 412.67 207.151 421.994C199.179 433.132 197.947 439.996 203.392 439.996Z" fill="#69C642"/>
<path d="M174.549 449.385L161.067 449.45C152.836 449.45 157.243 440.643 167.678 430.153C176.688 421.088 185.827 415.325 192.179 415.325H197.429L207.735 403.41H212.207L174.549 449.385ZM187.253 421.541C183.364 421.541 178.308 424.973 173.447 430.153C168.067 435.787 166.123 439.931 170.725 439.931H176.299L192.179 421.541H187.253Z" fill="#69C642"/>
<path d="M391.812 400.108H387.469L376.774 388.97H366.987L376.385 400.108H372.043L353.83 377.38H357.135L364.07 385.603H373.469L365.561 377.38H368.867L391.812 400.108Z" fill="#69C642"/>
<path d="M351.366 377.38L360.441 400.173H355.126L334.385 377.444H337.95L342.227 381.977H349.552L347.866 377.444L351.366 377.38ZM345.015 384.956L353.959 394.474H354.154L350.654 384.956H345.015Z" fill="#69C642"/>
<path d="M343.524 400.238H334.385C329.199 400.238 325.57 397.065 324.273 393.115C323.301 390.136 324.338 388.517 326.218 387.999L326.153 387.805C323.885 387.675 321.033 385.733 319.996 382.625C319.023 379.646 320.384 377.574 324.597 377.509H331.987L343.524 400.238ZM330.236 389.035C328.227 389.035 327.255 390.33 328.033 392.467C328.811 394.475 330.625 395.964 333.024 395.964H337.237L333.996 389.035H330.236ZM326.283 380.229C323.82 380.229 323.172 381.265 323.69 382.884C324.338 384.697 326.348 386.186 328.616 386.186H332.699L329.977 380.294L326.283 380.229Z" fill="#69C642"/>
<path d="M317.662 400.302L313.644 383.531H313.449L306.255 400.367H302.366L300.486 377.574H303.792L305.607 391.69H305.801L312.607 377.509H315.523L322.005 400.302H317.662Z" fill="#69C642"/>
<path d="M282.791 396.029H293.356L293.551 377.574H296.857L297.634 400.367L282.273 400.432L282.791 396.029Z" fill="#69C642"/>
<path d="M285.643 377.574L274.625 400.367H269.31L268.726 377.574H272.291L272.55 382.171H279.875L282.208 377.574H285.643ZM272.615 385.15L273.134 394.669H273.328L278.189 385.15H272.615Z" fill="#69C642"/>
<path d="M261.661 400.432L242.605 400.496L244.874 396.158H251.939L260.365 377.639H263.671L256.022 396.093H263.087L261.661 400.432Z" fill="#69C642"/>
<path d="M244.874 377.444C249.67 377.444 251.356 380.876 247.661 387.546C243.318 395.446 235.605 400.885 229.318 400.885C223.031 400.885 222.513 395.51 228.605 387.546C233.791 380.941 240.078 377.444 244.874 377.444ZM232.429 396.287C236.124 396.287 240.726 393.05 243.902 387.611C246.754 382.819 246.041 380.423 242.93 380.423C239.818 380.423 235.929 382.819 232.429 387.611C228.411 393.05 228.67 396.287 232.429 396.287Z" fill="#69C642"/>
<path d="M214.476 400.561H205.531C200.022 400.561 201.123 396.547 206.049 391.625C210.522 387.157 215.966 384.179 220.503 384.179H224.328L229.837 377.768H233.142L214.476 400.561ZM218.105 387.352C215.318 387.352 212.466 389.1 210.003 391.625C207.411 394.345 206.957 396.288 210.068 396.288H213.892L221.605 387.352H218.105Z" fill="#69C642"/>
<path d="M367.376 375.826H364.135L357.978 369.415H350.394L355.839 375.826H352.598L341.709 362.228H344.366L348.709 367.343H356.033L351.107 362.228H353.765L367.376 375.826Z" fill="#69C642"/>
<path d="M339.765 362.292L343.913 375.891H339.894L326.218 362.292H329.005L331.922 365.142H337.69L336.913 362.292H339.765ZM333.866 366.955L339.7 372.588H339.829L338.274 366.955H333.866Z" fill="#69C642"/>
<path d="M331.209 375.891H324.338C320.449 375.891 317.922 374.078 317.144 371.811C316.561 370.063 317.468 369.092 318.959 368.768L318.894 368.638C317.144 368.573 315.005 367.408 314.422 365.465C313.838 363.588 315.005 362.292 318.375 362.292H324.274L331.209 375.891ZM322.005 369.415C320.449 369.415 319.607 370.192 320.061 371.487C320.514 372.653 321.811 373.495 323.625 373.495H326.801L324.922 369.415H322.005ZM319.542 364.041C317.598 364.041 317.014 364.688 317.338 365.66C317.727 366.76 319.153 367.667 320.968 367.667H324.144L322.459 364.041H319.542Z" fill="#69C642"/>
<path d="M311.764 375.955L309.366 366.113H309.236L303.143 376.02H300.227L299.06 362.422H301.718L302.819 371.034H302.949L308.718 362.357H311.051L314.94 375.955H311.764Z" fill="#69C642"/>
<path d="M285.514 373.559H293.486L293.616 362.422H296.273L296.727 376.02H285.19L285.514 373.559Z" fill="#69C642"/>
<path d="M287.393 362.422L279.551 376.085H275.532L273.847 362.487H276.634L277.088 365.336H282.856L284.606 362.487L287.393 362.422ZM277.347 367.084L278.19 372.718H278.319L281.754 367.084H277.347Z" fill="#69C642"/>
<path d="M269.764 376.085L255.439 376.149L256.736 373.689H262.115L267.171 362.551H269.764L265.162 373.689H270.541L269.764 376.085Z" fill="#69C642"/>
<path d="M254.856 362.357C258.68 362.357 260.365 364.494 258.096 368.573C255.504 373.236 250.319 376.344 245.587 376.344C240.855 376.344 239.689 373.3 243.318 368.638C246.494 364.494 251.096 362.357 254.856 362.357ZM247.337 373.689C250.124 373.689 253.235 371.811 255.18 368.573C256.93 365.66 256.087 364.17 253.624 364.17C251.161 364.17 248.374 365.66 246.235 368.573C243.902 371.811 244.55 373.689 247.337 373.689Z" fill="#69C642"/>
<path d="M234.439 376.149H227.698C223.55 376.149 223.679 373.883 226.531 371.034C229.189 368.379 232.948 366.566 236.513 366.566H239.494L242.93 362.551H245.587L234.439 376.149ZM235.152 368.444C233.013 368.444 231.068 369.48 229.642 370.969C228.152 372.523 228.087 373.689 230.485 373.689H233.337L237.874 368.444H235.152Z" fill="#69C642"/>
<path d="M4.99083 587.568L4.92602 574.552L86.918 496.007L86.8532 472.048L4.8612 541.269L4.79639 528.254L144.928 416.167V422.966L106.039 455.86L106.104 477.617L144.993 440.32V447.119L4.99083 587.568Z" fill="white"/>
<path d="M144.928 411.245L4.73156 493.482L4.66675 477.423L144.799 376.473V383.725L124.446 399.266L124.511 415.195L144.928 403.993V411.245ZM109.604 410.533L51.1397 454.954V455.407L109.668 423.354L109.604 410.533Z" fill="white"/>
<path d="M4.60204 442.651L4.53723 415.195C4.47241 399.655 31.4358 382.948 60.8622 373.106C80.4365 366.566 90.0941 367.278 93.1404 371.099L94.4368 370.645C95.0849 365.077 105.909 356.27 121.854 351.09C135.724 346.622 144.734 347.852 144.799 356.465L144.863 371.617L4.60204 442.651ZM86.8533 382.366C86.8533 377.509 78.9458 376.797 64.9456 382.107C51.075 387.352 39.9267 395.057 39.9267 401.792V413.382L86.8533 391.69V382.366ZM132.873 362.487C132.873 357.177 128.011 356.788 120.493 359.508C111.289 362.94 103.511 369.091 103.576 374.401V383.92L132.873 370.386V362.487Z" fill="white"/>
<path d="M4.40759 364.882L117.252 337.686V337.298L4.34277 330.434V318.778L144.734 307.058V313.857L70.8438 323.311V323.764L144.799 331.794V337.816L4.47241 377.768L4.40759 364.882Z" fill="white"/>
<path d="M40.0562 262.832L40.121 291.906L144.604 292.877V299.676L4.27782 304.597L4.14819 258.429L40.0562 262.832Z" fill="white"/>
<path d="M144.604 276.883L4.08337 235.506L4.01855 219.448L144.474 242.111V249.363L123.993 246.838L124.057 262.767L144.539 269.566L144.604 276.883ZM109.215 245.025L50.6211 237.837V238.291L109.279 257.846L109.215 245.025Z" fill="white"/>
<path d="M4.01867 196.525L3.82422 139.219L39.797 158.256L39.8618 177.747L144.475 225.146V231.88L39.8618 189.078L39.9266 208.569L4.01867 196.525Z" fill="white"/>
<path d="M145.382 193.87C145.382 203.648 130.215 202.612 96.2515 183.963C44.8526 155.731 0.0648861 116.814 7.02628e-05 97.7121C-0.0647456 78.6748 44.723 98.9424 96.1867 138.765C130.215 165.055 145.317 184.092 145.382 193.87ZM39.084 123.549C39.084 133.844 62.6121 155.018 96.2515 174.962C121.465 189.92 132.678 191.928 132.613 185.387C132.613 178.847 121.4 166.026 96.1867 147.637C62.5473 123.16 39.084 113.253 39.084 123.549Z" fill="white"/>
<path d="M3.62985 54.8457L3.56504 27.9086C3.50022 11.3966 37.0748 35.9379 72.0753 70.7102C98.9739 97.4531 114.724 118.563 114.724 128.858V137.406L144.28 162.789V169.588L3.62985 54.8457ZM97.7424 114.677C97.7424 108.073 87.8256 95.7695 72.0753 80.8764C53.7973 63.5226 39.4082 53.6802 39.473 62.2276V72.7175L97.7424 122.836V114.677Z" fill="white"/>
<path d="M151.41 440.643V434.168L175.132 411.44L175.068 397.518L151.345 417.591V411.051L197.235 374.336V378.804L181.808 391.82L181.873 404.965L197.299 390.201V394.669L151.41 440.643Z" fill="white"/>
<path d="M197.235 371.099L151.28 393.697V385.668L197.17 348.241V352.968L188.744 360.091V370.127L197.17 366.242L197.235 371.099ZM183.105 365.012L163.855 381.394V381.653L183.17 372.847L183.105 365.012Z" fill="white"/>
<path d="M151.215 368.379L151.151 354.652C151.151 346.881 158.151 340.665 166.642 337.881C172.864 335.808 176.105 337.039 177.142 339.564L177.595 339.37C177.855 336.132 181.679 331.794 187.707 329.851C193.281 328.038 197.105 329.592 197.105 335.226V345.198L151.215 368.379ZM175.068 345.457C175.068 342.608 172.41 341.507 168.003 343.19C163.79 344.744 160.614 347.852 160.614 351.414V357.565L175.068 350.896V345.457ZM192.114 337.881C192.114 334.513 190.105 333.801 187.188 334.902C183.688 336.197 180.836 339.24 180.836 342.413V348.111L192.114 342.931V337.881Z" fill="white"/>
<path d="M151.151 329.527L185.957 321.11V320.851L151.086 312.303V306.475L197.105 302.655V307.123L169.753 310.62V310.879L197.105 318.908V322.858L151.151 335.938V329.527Z" fill="white"/>
<path d="M160.549 277.595L160.614 293.071L197.105 293.395V297.863L151.086 299.482L151.021 276.43L160.549 277.595Z" fill="white"/>
<path d="M197.04 282.841L150.956 264.969V256.939L196.975 260.048V264.775L188.549 264.516V274.552L196.975 278.114L197.04 282.841ZM182.845 264.386L163.53 263.739V263.998L182.845 272.156V264.386Z" fill="white"/>
<path d="M150.891 245.543L150.826 216.922L160.354 221.973V232.333L196.846 248.845V253.248L160.354 238.291V248.651L150.891 245.543Z" fill="white"/>
<path d="M197.299 228.189C197.299 234.6 190.947 235.959 178.179 228.901C161.845 219.901 149.919 206.303 149.854 196.784C149.854 187.33 161.716 189.467 178.114 202.094C190.947 212.066 197.299 221.779 197.299 228.189ZM160.16 203.648C160.16 209.087 167.095 217.052 178.179 223.592C187.512 229.16 191.985 228.837 191.985 224.628C191.985 220.419 187.512 214.203 178.179 207.403C167.03 199.374 160.16 198.209 160.16 203.648Z" fill="white"/>
<path d="M150.697 174.833L150.632 161.364C150.632 153.14 159.447 157.544 169.947 167.969C179.021 176.97 184.79 186.1 184.79 192.445V197.69L196.716 207.986V212.454L150.697 174.833ZM178.633 187.524C178.633 183.639 175.197 178.588 170.012 173.732C164.373 168.357 160.225 166.415 160.225 171.012V176.581L178.633 192.445V187.524Z" fill="white"/>
<path d="M200.086 391.82V387.481L211.235 376.797V367.019L200.086 376.408V372.07L222.837 353.875V357.177L214.605 364.105V373.495L222.837 365.595V368.897L200.086 391.82Z" fill="white"/>
<path d="M222.772 351.478L199.957 360.544V355.234L222.707 334.513V338.075L218.17 342.348V349.665L222.707 347.982L222.772 351.478ZM215.253 345.133L205.725 354.069V354.263L215.253 350.766V345.133Z" fill="white"/>
<path d="M199.957 343.643V334.513C199.957 329.333 203.133 325.707 207.087 324.412C210.068 323.441 211.688 324.477 212.207 326.354L212.401 326.29C212.531 324.023 214.476 321.174 217.587 320.138C220.568 319.167 222.642 320.527 222.707 324.736V332.117L199.957 343.643ZM211.17 330.369C211.17 328.362 209.874 327.39 207.735 328.167C205.725 328.944 204.235 330.758 204.235 333.153V337.362L211.17 334.125V330.369ZM219.985 326.354C219.985 323.894 218.948 323.246 217.327 323.764C215.513 324.412 214.022 326.419 214.022 328.685V332.765L219.92 330.045L219.985 326.354Z" fill="white"/>
<path d="M199.892 317.807L216.679 313.792V313.598L199.827 306.41V302.525L222.642 300.647V303.95L208.512 305.763V305.957L222.707 312.756V315.67L199.892 322.145V317.807Z" fill="white"/>
<path d="M204.105 282.905V293.46L222.577 293.654V296.957L199.762 297.734L199.698 282.387L204.105 282.905Z" fill="white"/>
<path d="M222.642 285.819L199.827 274.811V269.501L222.642 268.919V272.48L218.04 272.739V280.056L222.642 282.387V285.819ZM215.059 272.804L205.531 273.322V273.516L215.059 278.373V272.804Z" fill="white"/>
<path d="M199.762 261.796L199.698 242.759L204.04 245.025V252.083L222.577 260.501V263.803L204.04 256.227V263.285L199.762 261.796Z" fill="white"/>
<path d="M222.772 245.09C222.772 249.881 219.337 251.565 212.661 247.874C204.753 243.536 199.309 235.83 199.309 229.549C199.309 223.268 204.688 222.75 212.661 228.837C219.272 234.017 222.772 240.298 222.772 245.09ZM203.911 232.592C203.911 236.283 207.151 240.881 212.596 244.054C217.392 246.903 219.79 246.19 219.79 243.082C219.79 239.974 217.392 236.089 212.596 232.592C207.151 228.642 203.911 228.901 203.911 232.592Z" fill="white"/>
<path d="M199.633 214.721V205.785C199.633 200.281 203.651 201.382 208.577 206.303C213.05 210.771 216.031 216.21 216.031 220.743V224.563L222.448 230.067V233.369L199.633 214.721ZM212.855 218.347C212.855 215.562 211.105 212.713 208.577 210.253C205.855 207.663 203.911 207.209 203.911 210.317V214.138L212.855 221.843V218.347Z" fill="white"/>
<path d="M224.392 367.408V364.17L230.809 358.019V350.443L224.392 355.882V352.644L238.004 341.766V344.421L232.883 348.759V356.076L238.004 351.155V353.81L224.392 367.408Z" fill="white"/>
<path d="M237.939 339.823L224.328 343.967V339.953L237.939 326.29V329.074L235.087 331.988V337.751L237.939 336.974V339.823ZM233.272 333.995L227.633 339.823V339.953L233.272 338.399V333.995Z" fill="white"/>
<path d="M224.328 331.276V324.412C224.328 320.527 226.142 318.001 228.411 317.224C230.161 316.642 231.133 317.548 231.457 319.037L231.587 318.973C231.652 317.224 232.819 315.088 234.763 314.505C236.643 313.922 237.939 315.088 237.939 318.455V324.347L224.328 331.276ZM230.809 322.146C230.809 320.592 230.031 319.75 228.735 320.203C227.568 320.656 226.726 321.951 226.726 323.764V326.937L230.809 325.059V322.146ZM236.189 319.62C236.189 317.678 235.541 317.095 234.569 317.419C233.467 317.807 232.559 319.232 232.559 321.045V324.218L236.189 322.534V319.62Z" fill="white"/>
<path d="M224.263 311.915L234.115 309.519V309.389L224.198 303.303V300.389L237.809 299.223V301.878L229.189 302.979V303.108L237.874 308.871V311.202L224.263 315.088V311.915Z" fill="white"/>
<path d="M226.661 285.69V293.654L237.809 293.784V296.439L224.198 296.892V285.366L226.661 285.69Z" fill="white"/>
<path d="M237.809 287.503L224.133 279.668V275.653L237.744 273.969V276.754L234.892 277.207V282.97L237.744 284.718L237.809 287.503ZM233.142 277.531L227.503 278.373V278.502L233.142 281.934V277.531Z" fill="white"/>
<path d="M224.133 269.955L224.068 255.644L226.531 256.939V262.314L237.68 267.365V269.955L226.531 265.357V270.732L224.133 269.955Z" fill="white"/>
<path d="M237.874 255.062C237.874 258.882 235.735 260.566 231.652 258.299C226.985 255.709 223.874 250.529 223.874 245.802C223.874 241.075 226.92 239.909 231.587 243.536C235.67 246.709 237.874 251.241 237.874 255.062ZM226.531 247.55C226.531 250.335 228.411 253.443 231.652 255.385C234.569 257.134 236.059 256.292 236.059 253.831C236.059 251.371 234.569 248.586 231.652 246.45C228.411 244.118 226.531 244.701 226.531 247.55Z" fill="white"/>
<path d="M224.068 234.664V227.93C224.068 223.786 226.337 223.916 229.189 226.765C231.846 229.42 233.661 233.175 233.661 236.737V239.715L237.68 243.147V245.802L224.068 234.664ZM231.781 235.377C231.781 233.24 230.744 231.297 229.254 229.873C227.698 228.383 226.531 228.319 226.531 230.715V233.564L231.781 238.096V235.377Z" fill="white"/>
<g filter="url(#filter0_f_150_10492)">
<path d="M417.284 182.797H182.521V417.332H417.284V182.797Z" fill="#000072"/>
</g>
<defs>
<filter id="filter0_f_150_10492" x="82.5212" y="82.7974" width="434.763" height="434.535" filterUnits="userSpaceOnUse" color-interpolation-filters="sRGB">
<feFlood flood-opacity="0" result="BackgroundImageFix"/>
<feBlend mode="normal" in="SourceGraphic" in2="BackgroundImageFix" result="shape"/>
<feGaussianBlur stdDeviation="50" result="effect1_foregroundBlur_150_10492"/>
</filter>
</defs>
</svg>
