<svg width="61" height="60" viewBox="0 0 61 60" fill="none" xmlns="http://www.w3.org/2000/svg">
<path d="M52.7636 57.5064V3.74035H55.2591V0H4.82091V3.74035H6.67865V57.5064H0.017334V60H60.0628V57.5064H52.7636ZM29.6929 45.5065C27.8279 45.5065 26.316 47.0412 26.316 48.9351H26.3149V57.3507H9.08053V4.75395H50.3617V57.3518H33.0698V48.9363C33.07 47.0423 31.5592 45.5065 29.6929 45.5065ZM15.3278 11.2406H20.8003V16.9221H15.3278V11.2406ZM26.9849 11.2406H32.4575V16.9221H26.9849V11.2406ZM44.1146 16.9223H38.6432V11.2406H44.1146V16.9223ZM15.3278 22.2083H20.8003V27.8886H15.3278V22.2083ZM26.9849 22.2083H32.4575V27.8886H26.9849V22.2083ZM44.1146 27.8886H38.6432V22.2083H44.1146V27.8886ZM15.3278 33.2371H20.8003V38.9186H15.3278V33.2371ZM26.9849 33.2371H32.4575V38.9186H26.9849V33.2371ZM44.1146 38.9174H38.6432V33.236H44.1146V38.9174ZM15.3278 44.0141H20.8003V49.6956H15.3278V44.0141ZM44.1146 49.6956H38.6432V44.0141H44.1146V49.6956Z" fill="black"/>
</svg>
