<svg width="63" height="62" viewBox="0 0 63 62" fill="none" xmlns="http://www.w3.org/2000/svg">
<path d="M2.9537 52.4286H1.01831C1.01831 57.1681 4.69555 61 9.24372 61H61.0154V8.56303H10.2114V1H9.24372C4.69555 1 1.01831 4.83193 1.01831 9.57143V52.4286H2.9537C2.9537 48.7983 5.76002 45.874 9.24372 45.874H10.2114V10.5798H59.08V58.9832H9.24372C5.76002 58.9832 2.9537 56.0588 2.9537 52.4286ZM8.27603 23.437C8.27603 32.2605 8.27603 41.084 8.27603 43.9076C6.1471 44.1597 4.26009 45.2689 2.9537 46.8824V9.57143C2.9537 6.29412 5.27617 3.57143 8.27603 3.11765V23.437Z" fill="black"/>
<path d="M13.1145 1V6.04202H55.4028L61.0638 3.52101L55.4028 1H13.1145ZM15.0499 3.01681H17.953V4.02521H15.0499V3.01681ZM55.0157 4.02521H19.8884V3.01681H55.0157L56.1286 3.52101L55.0157 4.02521Z" fill="black"/>
<path d="M22.5495 36.5462V51.4202H46.2581V36.5462H44.3227V49.4034H24.4849V36.5462H22.5495Z" fill="black"/>
<path d="M40.6938 21.6723V25.3025L34.4038 18.7479L19.211 34.5798L20.5658 35.9916L34.4038 21.5714L42.6292 30.1429V23.6891H44.3227V31.9076L48.2418 35.9916L49.5966 34.5798L46.2581 31.1008V21.6723H40.6938Z" fill="black"/>
<path d="M2.9537 52.4286H1.01831M2.9537 52.4286C2.9537 48.7983 5.76002 45.874 9.24372 45.874H10.2114V10.5798H59.08V58.9832H9.24372C5.76002 58.9832 2.9537 56.0588 2.9537 52.4286ZM1.01831 52.4286C1.01831 57.1681 4.69555 61 9.24372 61H61.0154V8.56303H10.2114V1H9.24372C4.69555 1 1.01831 4.83193 1.01831 9.57143V52.4286ZM8.27603 23.437C8.27603 32.2605 8.27603 41.084 8.27603 43.9076C6.1471 44.1597 4.26009 45.2689 2.9537 46.8824V9.57143C2.9537 6.29412 5.27617 3.57143 8.27603 3.11765V23.437ZM13.1145 1V6.04202H55.4028L61.0638 3.52101L55.4028 1H13.1145ZM15.0499 3.01681H17.953V4.02521H15.0499V3.01681ZM55.0157 4.02521H19.8884V3.01681H55.0157L56.1286 3.52101L55.0157 4.02521ZM22.5495 36.5462V51.4202H46.2581V36.5462H44.3227V49.4034H24.4849V36.5462H22.5495ZM40.6938 21.6723V25.3025L34.4038 18.7479L19.211 34.5798L20.5658 35.9916L34.4038 21.5714L42.6292 30.1429V23.6891H44.3227V31.9076L48.2418 35.9916L49.5966 34.5798L46.2581 31.1008V21.6723H40.6938Z" stroke="black"/>
</svg>
