<svg width="102" height="60" viewBox="0 0 102 60" fill="none" xmlns="http://www.w3.org/2000/svg">
<path d="M0.0180664 13.1269C21.4504 63.9579 38.4272 59.9243 38.4272 59.9243C55.7649 49.8557 47.3075 0 47.3075 0C31.5993 14.9353 0.0180664 13.1269 0.0180664 13.1269ZM14.7464 33.6097C14.7464 33.6097 14.2513 25.8981 19.1814 24.8618C19.1814 24.8618 24.9675 22.6368 28.0617 30.6937C28.0718 30.6937 22.7087 25.8981 14.7464 33.6097ZM32.507 27.7778C32.507 27.7778 32.3007 22.0881 36.942 20.4218C36.942 20.4218 45.2653 18.6133 45.8223 26.3249C45.8324 26.3166 38.6438 22.6368 32.507 27.7778ZM23.6267 42.3575C23.6267 42.3575 38.4272 42.5707 42.8725 36.5256C42.8725 36.5256 45.4819 45.8323 35.4671 48.1995C35.4671 48.1995 26.5868 49.5102 23.6267 42.3575ZM101.095 13.1269C101.095 13.1269 69.5134 14.9353 53.7949 0C53.7949 0 45.3375 49.8557 62.6752 59.9243C62.6752 59.9243 79.6623 63.9579 101.095 13.1269ZM58.2402 20.2796C66.2026 27.9098 71.5658 23.1955 71.5658 23.1955C68.4613 31.1813 62.6855 29.0274 62.6855 29.0274C57.7452 27.92 58.2402 20.2796 58.2402 20.2796ZM76.0008 26.1115C82.1376 31.1813 89.3264 27.5644 89.3264 27.5644C88.7591 35.2048 80.4461 33.3963 80.4461 33.3963C75.8564 31.7402 76.0008 26.1115 76.0008 26.1115ZM57.9514 42.4286C60.9115 35.347 69.7918 36.5865 69.7918 36.5865C79.7345 38.9539 77.1869 48.3215 77.1869 48.3215C72.7519 42.2864 57.9514 42.4286 57.9514 42.4286Z" fill="black"/>
</svg>
