<svg width="61" height="60" viewBox="0 0 61 60" fill="none" xmlns="http://www.w3.org/2000/svg">
<path d="M60.0634 58.6957C60.0634 59.4159 59.4789 60 58.7581 60H1.3234C0.602595 60 0.0180664 59.4159 0.0180664 58.6957V1.30448C0.0180664 0.584216 0.602595 0.000130612 1.3234 0.000130612C2.04421 0.000130612 2.62873 0.584216 2.62873 1.30448V38.7563C4.67289 34.7781 7.31776 29.6393 7.8348 28.6752C9.22811 26.0743 10.9752 26.071 13.8618 26.0856L14.3807 26.0862C18.5434 26.0862 19.6396 28.2255 20.2986 32.4392C20.3853 32.992 20.474 33.6321 20.5695 34.327C21.4866 40.971 22.4873 44.3402 23.5428 44.3402C25.1228 44.3402 26.2377 39.0483 27.4174 33.4461C27.717 32.0234 28.0382 30.4968 28.3977 28.8809C29.9688 21.8133 33.4705 9.86411 39.2649 9.24507C40.4969 9.11189 41.6856 9.12272 42.7347 9.13237C45.1931 9.15715 46.5207 9.11516 47.2205 8.03816C50.1332 3.54743 52.4341 0 58.7582 0C59.479 0 60.0636 0.584086 60.0636 1.30435C60.0636 2.0246 59.479 2.60869 58.7582 2.60869C54.0512 2.60869 52.4909 4.70856 49.4113 9.45715C47.8994 11.7868 45.2505 11.7665 42.7119 11.7411C41.6858 11.7315 40.627 11.7232 39.5429 11.8385C37.156 12.0939 33.5721 17.6374 30.9461 29.4465C30.5892 31.0527 30.2698 32.5691 29.9722 33.983C28.2698 42.0683 27.2417 46.9487 23.5431 46.9487C19.6768 46.9487 18.7379 40.148 17.9839 34.6836C17.8902 34.006 17.8042 33.3812 17.7201 32.8417C17.0986 28.8714 16.4689 28.6949 14.3809 28.6949L13.8558 28.6943C11.001 28.6797 10.7474 28.7669 10.1368 29.9069C9.36896 31.3377 3.60447 42.5698 2.62913 44.4713V57.3912H58.7581C59.4789 57.3912 60.0634 57.9754 60.0634 58.6957ZM58.7581 10.4349H54.8421C54.1213 10.4349 53.5368 11.019 53.5368 11.7392C53.5368 12.4595 54.1213 13.0436 54.8421 13.0436H58.7581C59.4789 13.0436 60.0634 12.4595 60.0634 11.7392C60.0634 11.019 59.4789 10.4349 58.7581 10.4349ZM58.7581 19.5653H54.8421C54.1213 19.5653 53.5368 20.1494 53.5368 20.8696C53.5368 21.5899 54.1213 22.174 54.8421 22.174H58.7581C59.4789 22.174 60.0634 21.5899 60.0634 20.8696C60.0634 20.1494 59.4789 19.5653 58.7581 19.5653ZM58.7581 28.6957H54.8421C54.1213 28.6957 53.5368 29.2798 53.5368 30.0001C53.5368 30.7203 54.1213 31.3044 54.8421 31.3044H58.7581C59.4789 31.3044 60.0634 30.7203 60.0634 30.0001C60.0634 29.2798 59.4789 28.6957 58.7581 28.6957ZM58.7581 37.8261H54.8421C54.1213 37.8261 53.5368 38.4102 53.5368 39.1305C53.5368 39.8507 54.1213 40.4348 54.8421 40.4348H58.7581C59.4789 40.4348 60.0634 39.8507 60.0634 39.1305C60.0634 38.4102 59.4789 37.8261 58.7581 37.8261ZM58.7581 46.9566H54.8421C54.1213 46.9566 53.5368 47.5406 53.5368 48.2609C53.5368 48.9812 54.1213 49.5652 54.8421 49.5652H58.7581C59.4789 49.5652 60.0634 48.9812 60.0634 48.2609C60.0634 47.5406 59.4789 46.9566 58.7581 46.9566Z" fill="black"/>
</svg>
