<svg width="49" height="60" viewBox="0 0 49 60" fill="none" xmlns="http://www.w3.org/2000/svg">
<path d="M12.0264 12H9.02416C8.2279 12 7.46426 11.6839 6.90123 11.1213C6.33819 10.5587 6.02188 9.79565 6.02188 9C6.02188 8.20435 6.33819 7.44129 6.90123 6.87868C7.46426 6.31607 8.2279 6 9.02416 6H42.0492V3C42.0492 2.20435 41.7329 1.44129 41.1698 0.87868C40.6068 0.316071 39.8432 0 39.0469 0H6.02188C4.42938 0 2.9021 0.632141 1.77603 1.75736C0.649954 2.88258 0.017334 4.4087 0.017334 6V54C0.017334 57.3 2.71938 60 6.02188 60H42.0492C43.6417 60 45.169 59.3679 46.295 58.2426C47.4211 57.1174 48.0537 55.5913 48.0537 54V15C48.0537 14.2044 47.7374 13.4413 47.1744 12.8787C46.6113 12.3161 45.8477 12 45.0515 12H24.0355V36L18.031 30L12.0264 36V12Z" fill="black"/>
</svg>
