<svg width="61" height="60" viewBox="0 0 61 60" fill="none" xmlns="http://www.w3.org/2000/svg">
<path fill-rule="evenodd" clip-rule="evenodd" d="M41.1329 20.148C40.1942 19.3294 38.8441 19.3481 38.0695 19.5859C38.577 18.9661 39.7587 18.4579 40.1071 18.3963C40.3723 18.4952 41.1329 19.2727 41.1329 20.148ZM44.1301 16.7582C43.5128 13.4735 35.838 15.6499 31.9731 14.2547C31.8989 15.2123 33.1629 16.7465 34.3719 17.3144C32.3053 19.0983 30.4499 22.6926 30.0756 27.0838C29.7023 22.6926 27.8469 19.0983 25.7804 17.3144C26.9893 16.7465 28.2542 15.2123 28.1792 14.2547C24.3142 15.6499 16.6394 13.4735 16.0209 16.7582C15.8909 17.4534 16.2271 18.5129 16.5904 18.8174C16.6553 18.5971 16.9947 17.8764 18.0645 17.7148C23.4716 16.9022 27.986 25.1912 23.9111 28.5427C23.849 28.5935 23.8838 28.6877 23.968 28.6877H36.185C36.2682 28.6877 36.3033 28.5935 36.2422 28.5427C32.1661 25.1912 36.6805 16.9022 42.0876 17.7148C43.1584 17.8764 43.4965 18.5971 43.5617 18.8173C43.925 18.5129 44.2612 17.4535 44.1301 16.7582ZM45.4452 9.21924C45.3481 8.90892 48.5185 8.90115 48.5185 10.8749C48.5185 12.1977 46.6221 12.8243 46.6221 14.197C46.6221 14.8363 47.3136 15.3053 47.5258 15.3053C47.0374 13.1014 49.0571 14.2547 49.6024 14.6669C48.5186 11.7031 50.9585 11.7218 50.7183 10.3629C50.5512 9.41308 48.4306 9.70002 47.663 9.21924C46.301 8.36649 44.6898 5.0483 43.6279 8.36649C45.6074 10.1945 44.4556 12.885 41.9427 12.885C41.9427 12.885 41.9286 13.2795 41.9516 13.3108C44.949 13.1649 45.9936 10.9739 45.4452 9.21924ZM10.4768 14.6669C11.0223 14.2547 13.0417 13.1014 12.5545 15.3053C12.7655 15.3053 13.457 14.8363 13.457 14.197C13.457 12.8243 11.5606 12.1977 11.5606 10.8749C11.5606 8.90106 14.731 8.90892 14.6339 9.21924C14.0865 10.9738 15.1314 13.165 18.1286 13.3108C18.1506 13.2795 18.1366 12.885 18.1366 12.885C15.6247 12.885 14.4728 10.1944 16.4513 8.36649C15.3894 5.0483 13.7782 8.36649 12.4163 9.21924C11.6488 9.70011 9.5281 9.41308 9.36096 10.3629C9.12168 11.7218 11.5606 11.7032 10.4768 14.6669ZM18.9872 20.1479C19.9268 19.3293 21.2769 19.348 22.0506 19.5858C21.5452 18.966 20.3614 18.4578 20.014 18.3962C19.7488 18.4951 18.9872 19.2726 18.9872 20.1479ZM31.5016 1.77314L30.0395 0L28.5775 1.77314L30.0396 3.63927L31.5016 1.77314ZM39.848 7.13475L38.8082 5.87457L37.7694 7.13475L38.8082 8.3664L39.848 7.13475ZM48.2814 43.5589L46.9634 42.1715L45.6454 43.5589L46.9634 44.7759L48.2814 43.5589ZM22.3107 7.13456L21.2708 5.87438L20.232 7.13456L21.2708 8.3663L22.3107 7.13456ZM19.3324 13.3107H23.2104C26.4707 13.3107 27.9379 11.3202 28.3812 9.59402H31.6988C32.1422 11.3203 33.6081 13.3108 36.8698 13.3108H40.7477C40.7477 13.3108 41.4261 12.3953 41.5961 11.9421C42.2087 10.3108 41.4261 9.55005 40.2842 9.55005L38.8081 10.8807L37.332 9.55005C36.1901 9.55005 35.4075 10.3108 36.02 11.9421C36.0981 12.1507 36.2853 12.457 36.4623 12.7262C35.0863 12.5382 33.3299 11.6013 32.9446 9.59402C32.9446 9.59402 33.9613 7.98741 34.2166 7.3373C35.1334 4.99937 33.9625 4.04361 32.2502 4.04361L30.0394 6.62853L27.8289 4.04361C26.1166 4.04361 24.9457 4.99927 25.8634 7.3373C26.1177 7.9875 27.1354 9.59411 27.1354 9.59411C26.7491 11.6014 24.9928 12.5383 23.6168 12.7263C23.7949 12.4571 23.9811 12.1507 24.0591 11.9421C24.6705 10.3109 23.89 9.55014 22.747 9.55014L21.271 10.8808L19.795 9.55014C18.6522 9.55014 17.8715 10.3109 18.4831 11.9421C18.6531 12.3954 19.3324 13.3107 19.3324 13.3107ZM59.4257 25.2674C58.677 25.6444 54.2858 27.6907 48.6605 26.9338C48.7188 26.6669 48.7682 26.3982 48.8087 26.128C52.5525 25.6825 55.5958 25.051 57.5353 23.9779C59.746 22.7541 60.7127 19.8325 59.5968 17.6589C59.5679 17.6041 59.4879 17.5943 59.4478 17.6402C58.8364 18.3403 54.9914 22.5005 48.9339 23.7938C48.9184 23.4818 48.8896 23.1705 48.8478 22.8608C51.7899 21.2011 54.6622 19.2889 56.0303 17.5404C58.0979 14.8967 57.9076 11.5248 55.9402 9.80545C55.9198 9.78802 55.8928 9.78019 55.8662 9.78395C55.8395 9.78771 55.8158 9.8027 55.801 9.8251C55.1787 10.8462 49.3523 20.2132 42.9554 24.2568C42.8774 24.3065 42.7987 24.3552 42.7193 24.4028C42.5361 24.5134 42.5162 24.7503 42.6723 24.8913C43.4097 25.5561 43.8681 26.4814 43.8681 27.5085C43.8681 29.2943 42.4841 30.7795 40.6547 31.1017C39.7249 31.2808 38.3829 31.2289 37.0939 30.8051C37.0359 30.7864 36.9759 30.8245 36.9759 30.8824V36.5387C36.9759 36.6296 37.1151 36.6521 37.148 36.5649C37.9315 34.5001 40.2772 34.0613 41.3031 34.0613C41.6724 36.2683 42.3318 38.0963 43.1885 39.0803C44.5834 40.6791 46.8612 40.6567 47.849 39.5512C47.8653 39.5329 47.8723 39.5082 47.868 39.4841C47.8637 39.4601 47.8485 39.4393 47.8269 39.4277C47.2466 39.096 43.926 37.0683 43.2614 33.7452C43.5238 33.6551 43.7798 33.5532 44.0251 33.4327C45.0969 35.1972 46.657 36.7686 47.913 37.3688C50.0227 38.3754 51.954 37.8858 52.8107 36.4123C52.8417 36.3604 52.8037 36.2957 52.7406 36.2899C51.4357 36.1861 47.4306 35.0444 45.7253 32.2629C45.9206 32.0845 46.1117 31.8986 46.2898 31.7008C48.0741 33.0519 50.5972 34.2464 52.4035 34.4902C54.517 34.7761 56.9118 34.1054 56.97 31.6606C56.9709 31.6116 56.9269 31.5715 56.875 31.5746C56.1233 31.6195 51.1485 31.8349 47.6038 29.8111C47.7269 29.5782 47.8418 29.3411 47.948 29.1002C47.948 29.1002 53.3042 30.3595 55.842 29.9422C58.364 29.5282 59.8412 27.6581 59.5559 25.3319C59.5479 25.2739 59.4798 25.24 59.4257 25.2674ZM12.1309 29.1005C12.2375 29.3414 12.3527 29.5785 12.4761 29.8113C8.93253 31.8342 3.95974 31.6207 3.20522 31.5749C3.15217 31.5718 3.10815 31.6139 3.10909 31.6619C3.16835 34.1057 5.5621 34.7763 7.67555 34.4905C9.48107 34.2467 12.005 33.0522 13.7892 31.7011C13.9684 31.8988 14.1586 32.0848 14.3536 32.263C12.6474 35.0444 8.6434 36.1861 7.33836 36.29C7.27534 36.2958 7.23828 36.3604 7.26838 36.4124C8.12505 37.8859 10.0565 38.3754 12.1671 37.3689C13.4221 36.7687 14.9823 35.1973 16.0541 33.433C16.3002 33.5533 16.5564 33.6552 16.8176 33.7453C16.1531 37.0684 12.8326 39.0961 12.2521 39.4278C12.2306 39.4396 12.2157 39.4604 12.2114 39.4843C12.2072 39.5083 12.214 39.5329 12.2301 39.5513C13.2178 40.6567 15.4967 40.6792 16.8915 39.0804C17.7484 38.0964 18.4068 36.2684 18.776 34.0615C19.8028 34.0615 22.1475 34.5003 22.9311 36.565C22.9651 36.6522 23.1042 36.6296 23.1042 36.5387V30.8824C23.1042 30.8246 23.0432 30.7865 22.9852 30.8051C21.6962 31.2289 20.3542 31.2809 19.4255 31.1017C17.5952 30.7796 16.2111 29.2944 16.2111 27.5085C16.2111 26.4813 16.6704 25.5551 17.407 24.8903C17.564 24.7502 17.5431 24.5133 17.3609 24.4027C17.2809 24.355 17.2015 24.3064 17.1227 24.2567C10.7299 20.2152 4.90643 10.855 4.27897 9.82688C4.24982 9.77888 4.17984 9.76915 4.13676 9.80629C2.17229 11.5266 1.98116 14.8975 4.04872 17.5402C5.41678 19.2887 8.2888 21.201 11.2301 22.8606C11.1887 23.1703 11.1603 23.4815 11.1451 23.7935C5.09256 22.5012 1.25063 18.3477 0.633142 17.6429C0.592133 17.5949 0.509928 17.6047 0.481993 17.6595C-0.63164 19.8341 0.334982 22.7538 2.54372 23.9777C4.48317 25.0507 7.52647 25.6822 11.2703 26.1277C11.3108 26.3979 11.3601 26.6666 11.4184 26.9335C5.79912 27.6894 1.40977 25.6481 0.655245 25.2681C0.599188 25.2397 0.53109 25.275 0.52413 25.3337C0.240079 27.6601 1.71602 29.5282 4.23796 29.9422C6.77487 30.3595 12.1309 29.1005 12.1309 29.1005ZM46.9633 46.5627L45.0118 45.0353C44.2332 45.4965 43.6608 46.229 43.4386 47.0876C42.2648 47.2511 39.0642 46.5442 39.3753 46.0753C42.8831 41.168 40.2 38.2464 36.9757 38.4089V41.7047C36.9757 42.763 36.0469 43.6207 34.903 43.6207H32.6765C31.0792 43.6207 30.0394 45.2176 30.0394 45.2176C30.0394 45.2176 28.9998 43.6207 27.4026 43.6207H25.1759C24.0312 43.6207 23.1044 42.763 23.1044 41.7047V38.409C19.88 38.2466 17.1949 41.1682 20.7036 46.0754C21.0119 46.5395 17.7223 47.2827 16.1792 47.0946C15.7729 46.6755 15.1864 46.4112 14.5298 46.4112C14.2508 46.4113 13.9739 46.4607 13.7122 46.5571C13.7122 46.5571 7.64875 40.847 7.53767 40.7912L7.5877 40.6756C7.93289 40.0334 7.40458 39.3333 7.07039 39.3824C7.45856 38.9193 7.47672 36.8915 5.323 36.4225C5.38602 36.8298 5.418 37.6611 5.418 37.6611C5.418 37.6611 3.75583 36.7671 2.92117 37.5386C2.18771 38.4023 3.2055 39.9688 3.2055 39.9688C3.2055 39.9688 2.35485 39.9893 1.93555 39.9541C2.55209 42.0278 4.61965 41.8809 5.06698 41.4717C5.03782 41.8017 5.78557 42.2716 6.41895 41.8946L6.69717 41.7605C6.74627 41.826 12.6517 47.3756 12.6517 47.3756C12.3805 47.7761 12.2514 48.2676 12.3404 48.7914C12.4805 49.61 13.1662 50.2885 14.0419 50.4646C14.6602 50.5881 15.2417 50.4686 15.708 50.1973L17.2712 51.6406C17.4104 51.766 17.5985 51.8442 17.8086 51.8296C18.1909 51.8041 18.4771 51.4956 18.4482 51.1423C18.4361 50.9826 18.3541 50.8457 18.241 50.7418C18.2159 50.7143 16.6488 49.2672 16.6488 49.2672C17.9416 48.3654 20.3505 47.7301 22.3499 47.7301C22.7012 47.7301 22.8663 47.4345 22.7452 47.1445C21.8395 44.9778 23.787 43.4084 25.8015 44.6861C26.6803 45.2432 27.573 46.3407 28.2455 48.1716C24.94 48.9678 20.7899 51.1607 19.9503 53.5547C19.627 54.4791 20.6948 55.7391 21.9918 55.9928C22.0147 55.9978 22.0388 55.9935 22.0585 55.9808C22.0782 55.9681 22.092 55.948 22.0968 55.9251C22.7744 52.3514 26.6383 49.6881 28.6488 49.2358C28.7499 49.505 28.7168 49.4179 28.8179 49.6862C26.6283 50.7162 24.5047 52.8888 23.8982 55.4716C23.62 56.6544 24.946 57.7206 26.0408 58.0125C26.0958 58.0271 26.1499 57.9889 26.1529 57.9361C26.3611 54.6698 27.8111 51.896 29.1101 50.634C29.1457 50.8806 29.1724 51.1285 29.1902 51.3771C29.1902 51.3771 27.8602 55.0634 27.8602 57.753C27.8602 59.0042 29.7296 59.8776 30.0059 60C30.3511 59.8776 32.2195 59.0042 32.2195 57.753C32.2195 55.0633 30.8895 51.3771 30.8895 51.3771C30.9077 51.1285 30.9347 50.8806 30.9706 50.634C32.2686 51.896 33.7196 54.6688 33.9268 57.935C33.9298 57.9879 33.9848 58.0271 34.0387 58.0124C35.1347 57.7207 36.4598 56.6545 36.1825 55.4718C35.5749 52.8889 33.4524 50.7164 31.2627 49.6864C31.3627 49.418 31.3297 49.5051 31.4308 49.2359C33.4424 49.6882 37.3053 52.3513 37.9828 55.925C37.9877 55.9479 38.0016 55.9679 38.0213 55.9806C38.041 55.9933 38.065 55.9976 38.088 55.9927C39.3839 55.7391 40.4537 54.479 40.1284 53.5548C39.2909 51.1608 35.1397 48.9679 31.8342 48.1717C32.5077 46.3408 33.4003 45.2433 34.279 44.6861C36.2925 43.4085 38.24 44.978 37.3343 47.1448C37.2132 47.4345 37.3773 47.7301 37.7296 47.7301C39.9912 47.7301 42.7773 48.5428 43.88 49.6326C44.5847 50.6841 45.8866 51.3568 47.3558 51.2127C49.025 51.0503 50.3861 49.8028 50.5742 48.2609C50.7383 46.9097 50.0358 45.6965 48.916 45.0357L46.9633 46.5627ZM32.5794 36.7198C33.2749 36.4634 34.3647 36.671 34.3277 37.6696C34.3187 37.8957 34.6381 37.8957 34.661 37.6646C34.8692 36.1696 33.8534 35.7387 32.7906 35.914C32.6586 35.3999 32.5505 34.9506 32.4274 34.5051C32.3293 34.1449 32.2932 33.4682 32.7126 33.4682C32.9388 33.4682 32.8478 34.0978 32.8268 34.3689C32.8077 34.6069 32.8938 34.7508 33.088 34.7577C33.2092 34.7625 33.3603 34.6089 33.4503 34.5069C34.0589 33.8226 34.2 32.7633 33.4874 32.2523C32.8911 31.8233 31.3978 32.1425 30.9873 32.7534C30.9255 32.5233 30.6292 32.1435 30.487 31.9779C30.349 31.8165 30.313 31.7058 30.5041 31.5639C30.5942 31.4953 30.8664 31.2262 30.8664 30.948C30.8664 30.7836 30.7383 30.48 30.331 30.48C30.0097 30.48 29.6525 30.7013 29.6525 31.1947C29.6525 31.3045 29.6795 31.4221 29.7505 31.5484C29.5473 31.515 28.996 31.5287 28.7128 31.5982L32.6287 42.287C33.7496 41.7367 34.5712 40.8654 34.5712 39.9304C34.5712 39.1333 33.3912 39.3977 32.8178 40.0195C32.6336 39.0091 32.4695 38.076 32.2904 37.1457C32.2415 36.8892 32.3722 36.7972 32.5794 36.7198ZM27.0422 29.459L27.8649 31.7324C27.1604 31.8989 26.0275 32.4099 26.0275 33.0864C26.0275 33.9873 27.6297 34.5737 28.5564 34.5032C28.5104 34.7088 28.5635 34.8919 28.7076 35.0593C28.3713 35.0593 27.7369 35.215 27.5287 35.4382C27.0373 34.9829 26.2687 34.8175 25.9034 35.0946C25.5362 35.3736 25.5253 35.8465 25.9085 36.3811C26.1756 36.7512 26.2758 37.1165 25.9755 37.5452C27.0924 37.5452 26.681 36.1011 27.1183 36.1011C27.0613 36.3811 27.0963 36.7052 27.2235 37.0645C27.3076 37.3034 27.3076 37.4728 27.1635 37.7029C26.8032 38.2757 26.2428 39.5915 26.3188 40.7812C25.9526 40.7791 25.7664 40.69 25.8956 40.1927C25.9436 40.0075 25.8285 39.8754 25.6764 40.1036C25.5083 40.3552 25.4272 40.785 25.4272 40.9689C25.4272 42.0284 26.696 42.2418 27.1804 42.0177C28.5816 43.3663 31.3337 43.0066 32.2553 42.5542L27.4097 29.3295C27.3106 29.0799 26.9552 29.1995 27.0422 29.459ZM26.8741 40.3523C26.774 39.8078 27.5356 38.8347 28.5043 37.8958C28.2982 38.5076 28.4263 39.5622 28.8305 39.9254C28.1279 39.9254 27.2933 40.0566 26.8741 40.3523Z" fill="black"/>
</svg>
