<svg width="61" height="60" viewBox="0 0 61 60" fill="none" xmlns="http://www.w3.org/2000/svg">
<path d="M57.9191 27.8571C56.7348 27.8571 55.7746 28.8156 55.7746 30C55.7746 44.1797 44.2302 55.7143 30.0408 55.7143C15.8514 55.7143 4.30703 44.1797 4.30703 30C4.30703 15.8203 15.8514 4.28571 30.0408 4.28571C38.9276 4.28571 47.0679 8.77441 51.8165 16.2932C52.4511 17.2935 53.7757 17.5928 54.7746 16.9608C55.7767 16.3288 56.0762 15.0063 55.4437 14.0039C49.9045 5.23577 40.4083 0 30.0408 0C13.486 0 0.0180664 13.4577 0.0180664 30C0.0180664 46.5423 13.486 60 30.0408 60C46.5956 60 60.0636 46.5423 60.0636 30C60.0636 28.8156 59.1034 27.8571 57.9191 27.8571Z" fill="black"/>
<path d="M6.45151 32.1429C6.45151 33.3273 7.41171 34.2857 8.59599 34.2857H10.9969C16.2322 43.9414 28.347 50.7963 28.9989 51.1586C29.3235 51.3386 29.6817 51.4286 30.0408 51.4286C30.4 51.4286 30.7581 51.3386 31.0827 51.1586C31.7346 50.7963 43.8494 43.9414 49.0847 34.2857H51.4856C52.6699 34.2857 53.6301 33.3273 53.6301 32.1429C53.6301 30.9584 52.6699 30 51.4856 30H50.8413C51.2292 28.6067 51.4856 27.1814 51.4856 25.7143C51.4856 18.6244 45.7244 12.8571 38.6439 12.8571C35.445 12.8571 32.3727 14.0499 30.0408 16.1279C27.7089 14.0499 24.6367 12.8571 21.4378 12.8571C14.3572 12.8571 8.59599 18.6244 8.59599 25.7143C8.59599 27.1814 8.85241 28.6067 9.24036 30H8.59599C7.41171 30 6.45151 30.9584 6.45151 32.1429ZM30.0408 46.7934C27.3543 45.1433 20.1285 40.3502 15.9622 34.2857H21.4629C22.0315 34.2857 22.577 34.0597 22.9791 33.6579L24.9686 31.6699L28.0492 39.3666C28.3173 40.0363 28.9037 40.5259 29.6094 40.6703C29.7529 40.6996 29.8974 40.7143 30.0408 40.7143C30.6042 40.7143 31.1507 40.4925 31.557 40.0865L37.3622 34.2857H44.1195C39.9532 40.3502 32.7273 45.1433 30.0408 46.7934ZM12.885 25.7143C12.885 20.987 16.7216 17.1429 21.4378 17.1429C24.1948 17.1429 26.7026 18.3901 28.3194 20.5643C29.1277 21.6525 30.9539 21.6525 31.7623 20.5643C33.379 18.3901 35.8868 17.1429 38.6439 17.1429C43.3601 17.1429 47.1967 20.987 47.1967 25.7143C47.1967 27.1713 46.8774 28.6026 46.3668 30H36.4743C35.9057 30 35.3601 30.226 34.958 30.6278L30.8241 34.7586L27.7435 27.0619C27.4754 26.3923 26.889 25.9026 26.1833 25.7582C25.4786 25.618 24.7466 25.8336 24.2356 26.3421L20.5749 30H13.7148C13.2042 28.6026 12.885 27.1713 12.885 25.7143Z" fill="black"/>
</svg>
