<svg width="61" height="60" viewBox="0 0 61 60" fill="none" xmlns="http://www.w3.org/2000/svg">
<path d="M55.4722 10L39.0523 26.2125V10H34.7334L19.0371 25.9084V0H0.0227051V60H60.0682V10H55.4722ZM56.0652 56H4.02574V4H15.0341V31H19.6348L35.0492 15.3773V31H39.8984L56.0652 15.0375V56Z" fill="black"/>
<path d="M15.0341 40H19.0371V36H15.0341V40Z" fill="black"/>
<path d="M19.0371 45H15.0341V49H19.0371V45Z" fill="black"/>
<path d="M25.0417 40H29.0447V36H25.0417V40Z" fill="black"/>
<path d="M29.0447 45H25.0417V49H29.0447V45Z" fill="black"/>
<path d="M35.0492 40H39.0523V36H35.0492V40Z" fill="black"/>
<path d="M39.0523 45H35.0492V49H39.0523V45Z" fill="black"/>
<path d="M49.0599 36H45.0568V40H49.0599V36Z" fill="black"/>
<path d="M49.0599 45H45.0568V49H49.0599V45Z" fill="black"/>
</svg>
