<svg width="61" height="60" viewBox="0 0 61 60" fill="none" xmlns="http://www.w3.org/2000/svg">
<path d="M44.0561 44C45.7143 44 47.0583 42.657 47.0583 41V29H41.0538V41C41.0538 42.657 42.3978 44 44.0561 44Z" fill="black"/>
<path d="M40.053 41V14H17.0356V44H41.7803C40.7516 43.39 40.053 42.28 40.053 41ZM20.0379 18H28.0439V25H20.0379V18ZM26.0424 40H20.0379V38H26.0424V40ZM37.0508 40H28.0439V38H37.0508V40ZM37.0508 35H20.0379V33H37.0508V35ZM37.0508 30H20.0379V28H37.0508V30ZM37.0508 25H30.0455V23H37.0508V25ZM37.0508 20H30.0455V18H37.0508V20Z" fill="black"/>
<path d="M4.44706 39.946C4.13482 39.028 3.87062 38.081 3.66146 37.132L1.70698 37.564C1.93315 38.584 2.21637 39.601 2.55162 40.588L4.44706 39.946Z" fill="black"/>
<path d="M55.6599 39.896L57.5573 40.535C57.8906 39.548 58.1728 38.529 58.3959 37.508L56.4404 37.08C56.2323 38.03 55.9701 38.978 55.6599 39.896Z" fill="black"/>
<path d="M1.19659 34.468L3.1861 34.25C3.08102 33.289 3.02698 32.307 3.02498 31.332L1.02346 31.336C1.02546 32.382 1.08451 33.436 1.19659 34.468Z" fill="black"/>
<path d="M59.0674 31.278V31.165H57.0659V31.278C57.0659 32.253 57.0139 33.235 56.9098 34.196L58.8993 34.41C59.0114 33.378 59.0674 32.324 59.0674 31.278Z" fill="black"/>
<path d="M3.63844 25.528L1.68296 25.104C1.4618 26.122 1.29367 27.165 1.18459 28.203L3.17509 28.413C3.27717 27.446 3.43329 26.476 3.63844 25.528Z" fill="black"/>
<path d="M56.4174 25.369C56.6286 26.314 56.7907 27.284 56.8988 28.251L58.8873 28.029C58.7712 26.99 58.5971 25.948 58.3709 24.933L56.4174 25.369Z" fill="black"/>
<path d="M3.67247 19.157C3.23514 20.104 2.84685 21.086 2.51559 22.076L4.41303 22.71C4.72127 21.789 5.08354 20.875 5.48985 19.994L3.67247 19.157Z" fill="black"/>
<path d="M54.533 19.848C54.9453 20.729 55.3126 21.64 55.6258 22.557L57.5203 21.911C57.184 20.926 56.7897 19.946 56.3464 19L54.533 19.848Z" fill="black"/>
<path d="M22.7419 3.998L22.2015 2.072C21.1957 2.354 20.195 2.694 19.2273 3.083L19.9738 4.938C20.8735 4.576 21.8052 4.26 22.7419 3.998Z" fill="black"/>
<path d="M40.7035 3.018C39.7328 2.635 38.73 2.301 37.7223 2.025L37.1939 3.954C38.1326 4.211 39.0653 4.522 39.968 4.878L40.7035 3.018Z" fill="black"/>
<path d="M28.5013 3.044L28.3882 1.047C27.3434 1.106 26.2936 1.222 25.2678 1.392L25.5951 3.365C26.5488 3.207 27.5265 3.099 28.5013 3.044Z" fill="black"/>
<path d="M34.6509 1.362C33.6212 1.198 32.5704 1.089 31.5276 1.037L31.4265 3.034C32.3972 3.083 33.376 3.185 34.3357 3.338L34.6509 1.362Z" fill="black"/>
<path d="M39.957 55.037C39.0563 55.399 38.1246 55.715 37.1889 55.977L37.7293 57.903C38.735 57.621 39.7358 57.281 40.7035 56.892L39.957 55.037Z" fill="black"/>
<path d="M19.9628 55.097L19.2273 56.957C20.198 57.34 21.2008 57.674 22.2085 57.95L22.7369 56.021C21.7992 55.764 20.8655 55.453 19.9628 55.097Z" fill="black"/>
<path d="M34.3357 56.61C33.381 56.768 32.4032 56.876 31.4295 56.931L31.5426 58.928C32.5874 58.869 33.6372 58.753 34.6629 58.583L34.3357 56.61Z" fill="black"/>
<path d="M25.5941 56.637L25.2798 58.613C26.3096 58.777 27.3604 58.886 28.4032 58.938L28.5043 56.941C27.5325 56.892 26.5538 56.79 25.5941 56.637Z" fill="black"/>
<path d="M8.02877 16C12.4501 16 16.0348 12.418 16.0348 8C16.0348 3.582 12.4501 0 8.02877 0C3.60742 0 0.0227051 3.582 0.0227051 8C0.0227051 12.418 3.60742 16 8.02877 16ZM7.02801 9H8.02877C6.37051 9 5.0265 7.657 5.0265 6C5.0265 4.343 6.37051 3 8.02877 3C9.68703 3 11.031 4.343 11.031 6C11.031 7.657 9.68703 9 8.02877 9H9.02953C11.2082 9 12.9715 10.741 13.0226 12.905C11.7516 14.197 9.98525 15 8.02877 15C6.07229 15 4.30595 14.197 3.03499 12.905C3.08603 10.741 4.84936 9 7.02801 9Z" fill="black"/>
<path d="M52.0621 16C56.4835 16 60.0682 12.418 60.0682 8C60.0682 3.582 56.4835 0 52.0621 0C47.6408 0 44.0561 3.582 44.0561 8C44.0561 12.418 47.6408 16 52.0621 16ZM51.0614 9H52.0621C50.4039 9 49.0599 7.657 49.0599 6C49.0599 4.343 50.4039 3 52.0621 3C53.7204 3 55.0644 4.343 55.0644 6C55.0644 7.657 53.7204 9 52.0621 9H53.0629C55.2415 9 57.0049 10.741 57.0559 12.905C55.785 14.197 54.0186 15 52.0621 15C50.1057 15 48.3393 14.197 47.0683 12.905C47.1194 10.741 48.8827 9 51.0614 9Z" fill="black"/>
<path d="M8.02877 60C12.4501 60 16.0348 56.418 16.0348 52C16.0348 47.582 12.4501 44 8.02877 44C3.60742 44 0.0227051 47.582 0.0227051 52C0.0227051 56.418 3.60742 60 8.02877 60ZM7.02801 53H8.02877C6.37051 53 5.0265 51.657 5.0265 50C5.0265 48.343 6.37051 47 8.02877 47C9.68703 47 11.031 48.343 11.031 50C11.031 51.657 9.68703 53 8.02877 53H9.02953C11.2082 53 12.9715 54.741 13.0226 56.905C11.7516 58.197 9.98525 59 8.02877 59C6.07229 59 4.30595 58.197 3.03499 56.905C3.08603 54.741 4.84936 53 7.02801 53Z" fill="black"/>
<path d="M52.0621 44C47.6408 44 44.0561 47.582 44.0561 52C44.0561 56.418 47.6408 60 52.0621 60C56.4835 60 60.0682 56.418 60.0682 52C60.0682 47.582 56.4835 44 52.0621 44ZM52.0621 59C50.1057 59 48.3393 58.197 47.0683 56.905C47.1194 54.741 48.8827 53 51.0614 53H52.0621C50.4039 53 49.0599 51.657 49.0599 50C49.0599 48.343 50.4039 47 52.0621 47C53.7204 47 55.0644 48.343 55.0644 50C55.0644 51.657 53.7204 53 52.0621 53H53.0629C55.2415 53 57.0049 54.741 57.0559 56.905C55.785 58.197 54.0186 59 52.0621 59Z" fill="black"/>
</svg>
