<svg width="99" height="60" viewBox="0 0 99 60" fill="none" xmlns="http://www.w3.org/2000/svg">
<path d="M40.4761 19.8822C38.3607 23.7532 36.9534 27.9177 36.1081 32.2336C32.8047 25.996 27.7057 20.0289 22.8397 17.5247C26.4401 24.432 31.4112 32.3804 35.3085 37.6961C35.2309 38.5217 35.1669 39.3518 35.1212 40.1912L35.1166 40.2187L35.1121 40.3196L35.1075 40.3563V40.3792L35.1029 40.526V40.5535L35.0938 40.6682L35.0847 40.8012L35.0755 41.0121C35.0664 41.2506 35.0481 41.4754 35.0435 41.691L35.0344 42.0258V42.0349L35.0207 42.356V42.489L35.0161 42.5349L35.0116 42.6266V42.7458L35.007 42.8513V43.443L34.9979 43.5531V43.7824L34.9933 43.8925V44.0805C34.9933 44.2961 34.9933 44.4933 34.9933 44.6951L34.9979 44.741C35.007 46.7499 35.1075 48.7817 35.2629 50.7722C29.186 44.8098 18.2021 39.6821 10.7546 39.9985C18.8737 45.2913 29.6658 50.9282 35.473 53.0884C35.6147 54.5698 35.7974 56.0467 36.0076 57.5052C13.4457 66.7607 10.7271 48.2542 0.017334 34.8433C7.06735 32.2886 13.0208 31.1925 18.0239 31.3209C16.4613 24.5237 17.3797 16.057 16.0181 7.7417C28.6286 9.85608 36.3731 14.1307 40.4761 19.8822ZM98.0916 0.0134522C87.2859 30.3577 94.9664 65.0958 41.8423 57.2346C36.9351 23.4092 49.1527 -0.65159 98.0916 0.0134522ZM83.2468 14.7315C68.6259 19.1483 50.1853 38.6409 46.2103 53.281C53.2146 48.8872 71.0978 30.3852 83.2468 14.7315Z" fill="black"/>
</svg>
