<svg width="55" height="60" viewBox="0 0 55 60" fill="none" xmlns="http://www.w3.org/2000/svg">
<path d="M23.9649 42.0476H0.017334V48.0318H9.20722C10.5054 50.2812 12.1638 52.3028 14.1165 54.0159H6.00423V60H53.8994V54.0159H45.7273C48.125 51.9046 50.0757 49.335 51.4645 46.4585C52.8533 43.5821 53.6521 40.4569 53.8139 37.2671C53.9757 34.0773 53.4972 30.8874 52.4066 27.8852C51.3159 24.8831 49.6353 22.1295 47.4635 19.7867L51.5346 15.7175C53.192 13.9491 54.0966 11.6058 54.057 9.18301C54.0175 6.76019 53.037 4.44765 51.3228 2.73423C49.6086 1.0208 47.2949 0.0407541 44.871 0.00124257C42.447 -0.0382689 40.1027 0.865852 38.3335 2.5225L19.7442 21.1032L32.9453 34.2982L43.2427 24.0953C46.2378 27.3632 47.9033 31.6317 47.9125 36.0635C47.9044 39.6912 46.7968 43.2314 44.7358 46.2174C42.6748 49.2035 39.7571 51.4954 36.3671 52.7912C32.9771 54.087 29.2739 54.3258 25.7455 53.4762C22.217 52.6265 19.0288 50.7284 16.601 48.0318H23.9649V42.0476ZM28.1857 21.1032L42.5243 6.77122C42.8368 6.45885 43.2079 6.21106 43.6162 6.04201C44.0245 5.87295 44.4621 5.78594 44.9041 5.78594C45.3461 5.78594 45.7837 5.87295 46.192 6.04201C46.6004 6.21106 46.9714 6.45885 47.2839 6.77122C47.5964 7.0836 47.8443 7.45444 48.0135 7.86258C48.1826 8.27071 48.2696 8.70815 48.2696 9.14991C48.2696 9.59168 48.1826 10.0291 48.0135 10.4372C47.8443 10.8454 47.5964 11.2162 47.2839 11.5286L32.9453 25.8606L28.1857 21.1032Z" fill="black"/>
</svg>
