<svg width="65" height="60" viewBox="0 0 65 60" fill="none" xmlns="http://www.w3.org/2000/svg">
<path d="M12.8852 17.143C15.2535 17.143 17.2748 16.3063 18.9498 14.6321C20.6254 12.958 21.4632 10.9377 21.4632 8.5717C21.4632 6.20595 20.6254 4.18558 18.9498 2.51128C17.2748 0.83721 15.2534 0 12.8852 0C10.5172 0 8.49575 0.83721 6.8204 2.51128C5.14517 4.18558 4.30732 6.20548 4.30732 8.5717C4.30732 10.9381 5.14517 12.958 6.8204 14.6321C8.49575 16.3058 10.5172 17.143 12.8852 17.143Z" fill="black"/>
<path d="M23.0881 30.52C25.6012 33.0303 28.6333 34.2861 32.1856 34.2861C35.738 34.2861 38.77 33.0303 41.2829 30.52C43.7956 28.008 45.0523 24.9779 45.0523 21.429C45.0523 17.8799 43.7956 14.8499 41.2829 12.3386C38.77 9.82734 35.738 8.5717 32.1856 8.5717C28.6333 8.5717 25.601 9.82757 23.0881 12.3386C20.5753 14.8495 19.3184 17.8795 19.3184 21.429C19.3184 24.9785 20.5753 28.0084 23.0881 30.52Z" fill="black"/>
<path d="M51.4868 17.143C53.854 17.143 55.8758 16.3063 57.551 14.6321C59.2262 12.958 60.0636 10.9377 60.0636 8.5717C60.0636 6.20595 59.2262 4.18558 57.551 2.51128C55.8759 0.83721 53.854 0 51.4868 0C49.1179 0 47.0966 0.83721 45.4213 2.51128C43.7464 4.18558 42.9086 6.20548 42.9086 8.5717C42.9086 10.9381 43.7465 12.958 45.4213 14.6321C47.0966 16.3058 49.1179 17.143 51.4868 17.143Z" fill="black"/>
<path d="M60.1974 17.1435C60.0641 17.1435 59.5782 17.3779 58.7404 17.8467C57.9033 18.3157 56.8137 18.79 55.4738 19.27C54.134 19.7495 52.8042 19.9896 51.4868 19.9896C49.9895 19.9896 48.5051 19.7331 47.0302 19.2195C47.1411 20.045 47.1973 20.7818 47.1973 21.4291C47.1973 24.5318 46.2924 27.3888 44.4822 30.0005C48.1018 30.1125 51.0611 31.5407 53.3628 34.287H57.8526C59.6841 34.287 61.2255 33.834 62.4762 32.9302C63.727 32.0268 64.3528 30.7036 64.3528 28.9628C64.3531 21.0828 62.9687 17.143 60.1974 17.1435Z" fill="black"/>
<path d="M55.1899 44.2133C54.9553 42.9074 54.659 41.6962 54.3015 40.5805C53.944 39.4639 53.4636 38.3764 52.8613 37.3161C52.258 36.2566 51.5652 35.352 50.7833 34.6039C50.0009 33.8558 49.0458 33.2595 47.918 32.8124C46.7903 32.3661 45.5444 32.143 44.182 32.143C43.9583 32.143 43.4783 32.3831 42.7411 32.8631C42.0037 33.3426 41.189 33.8793 40.2951 34.47C39.4014 35.0607 38.2073 35.5968 36.7097 36.0768C35.2119 36.5568 33.7043 36.7969 32.1861 36.7969C30.6673 36.7969 29.1592 36.5568 27.6624 36.0768C26.1654 35.5968 24.9706 35.0607 24.077 34.47C23.1832 33.8793 22.3681 33.3426 21.6311 32.8631C20.8937 32.3831 20.4137 32.143 20.19 32.143C18.8275 32.143 17.5822 32.3661 16.454 32.8124C15.3258 33.2595 14.3709 33.8558 13.5892 34.6039C12.8067 35.3512 12.1149 36.2566 11.5113 37.3161C10.9084 38.3764 10.4281 39.4639 10.0706 40.5805C9.71327 41.6962 9.41763 42.9074 9.18267 44.2133C8.94795 45.5193 8.79174 46.7353 8.71357 47.863C8.63529 48.9903 8.59633 50.1458 8.59633 51.3289C8.59633 54.0069 9.41141 56.1223 11.042 57.6731C12.6733 59.2238 14.8402 60 17.5426 60H46.8287C49.5313 60 51.698 59.2238 53.3296 57.6731C54.9602 56.1223 55.7756 54.0069 55.7756 51.3289C55.7756 50.1458 55.7362 48.9907 55.6591 47.863C55.5798 46.7353 55.4236 45.5192 55.1899 44.2133Z" fill="black"/>
<path d="M19.8881 30.0004C18.0786 27.3887 17.1741 24.5317 17.1745 21.429C17.1745 20.7817 17.2305 20.0453 17.3419 19.2194C15.8674 19.7327 14.3819 19.9895 12.8852 19.9895C11.5672 19.9895 10.2385 19.7495 8.89795 19.2699C7.55803 18.7899 6.46867 18.3155 5.63129 17.8466C4.79355 17.3778 4.30732 17.1434 4.17341 17.1434C1.4033 17.1435 0.0183105 21.0833 0.0183105 28.9627C0.0183105 30.7035 0.643852 32.0267 1.89458 32.9301C3.14567 33.8339 4.68711 34.2861 6.51831 34.2861H11.0086C13.3097 31.5406 16.2691 30.1122 19.8881 30.0004Z" fill="black"/>
</svg>
