<svg width="53" height="60" viewBox="0 0 53 60" fill="none" xmlns="http://www.w3.org/2000/svg">
<path fill-rule="evenodd" clip-rule="evenodd" d="M25.1089 10.8694C26.5403 10.8694 27.913 10.2968 28.9251 9.27761C29.9372 8.25841 30.5058 6.87607 30.5058 5.4347C30.5058 3.99333 29.9372 2.61099 28.9251 1.59179C27.913 0.572583 26.5403 0 25.1089 0C23.6776 0 22.3049 0.572583 21.2928 1.59179C20.2807 2.61099 19.7121 3.99333 19.7121 5.4347C19.7121 6.87607 20.2807 8.25841 21.2928 9.27761C22.3049 10.2968 23.6776 10.8694 25.1089 10.8694ZM46.6598 49.1289C45.2283 49.1289 43.8554 49.7016 42.8431 50.721C41.8309 51.7403 41.2622 53.1229 41.2622 54.5645C41.2622 56.0061 41.8309 57.3886 42.8431 58.408C43.8554 59.4273 45.2283 60 46.6598 60C48.0914 60 49.4643 59.4273 50.4766 58.408C51.4888 57.3886 52.0575 56.0061 52.0575 54.5645C52.0575 53.1229 51.4888 51.7403 50.4766 50.721C49.4643 49.7016 48.0914 49.1289 46.6598 49.1289ZM42.9362 23.3337H35.8149L28.9849 14.6142C28.6758 14.219 28.282 13.8993 27.8329 13.6791C27.3838 13.4589 26.891 13.3439 26.3915 13.3426L19.017 13.3343H19.0137C18.4527 13.3343 17.8999 13.4759 17.4084 13.7509L8.45671 18.7506C7.90107 19.062 7.44607 19.5277 7.14598 20.0922L2.70738 28.4251L8.53946 31.5749L12.5196 24.1053L17.5027 21.3221L15.9636 32.6982L10.868 43.6209H0.0180664V50.2872H12.9698C13.5979 50.2874 14.2131 50.1076 14.7435 49.7688C15.2739 49.43 15.6977 48.9462 15.9653 48.374L21.2909 36.9579L25.3158 44.0176L23.262 60H29.9381L32.025 43.7609C32.118 43.0382 31.9733 42.3047 31.6129 41.6727L26.8003 33.2315L28.0299 24.157L31.6113 28.7301C31.9209 29.1257 32.3156 29.4455 32.7656 29.6655C33.2156 29.8854 33.7093 29.9998 34.2096 30H42.9362V23.3337Z" fill="black"/>
</svg>
