<svg width="96" height="60" viewBox="0 0 96 60" fill="none" xmlns="http://www.w3.org/2000/svg">
<path d="M94.7605 23.8487L89.1311 12.6289L91.5914 7.72521C92.2011 6.50855 91.9628 5.04053 90.9972 4.07985L87.8282 0.921774C86.8595 -0.0389103 85.3895 -0.270215 84.1701 0.329635L77.832 3.48771C77.5287 3.64037 77.2502 3.83929 77.0088 4.07985L71.0327 10.0336L61.6524 14.7075L59.9008 11.2164C59.3623 10.1462 58.2667 9.47078 57.0659 9.47078H50.7278C50.1026 9.47078 49.4899 9.65583 48.9699 10.0012L40.6295 15.5418L33.1463 13.6774L34.5482 10.8833C35.3312 9.32275 34.6968 7.42605 33.1308 6.64579L26.7927 3.48771C25.7188 2.95571 24.4344 3.06982 23.475 3.78686L11.0247 13.0899L4.94343 16.12C3.86953 16.6551 3.19177 17.7484 3.19177 18.945V25.2612C1.44012 25.2612 0.0227051 26.6752 0.0227051 28.4192V34.7354C0.0227051 35.3584 0.208393 35.969 0.555009 36.4871L6.89314 45.9614C7.44402 46.7833 8.3477 47.3029 9.33803 47.3615C10.3315 47.4263 11.2878 47.0161 11.9346 46.2651L15.0355 42.6614C15.2058 42.4656 15.3481 42.2497 15.4657 42.0184L16.552 39.8534C16.6263 39.949 16.7098 40.04 16.7965 40.1263L19.9655 43.2844C20.9342 44.2482 22.4042 44.4826 23.6236 43.8765L27.9192 41.7362L31.7134 45.5173V50.5258C31.7134 51.7224 32.3911 52.8157 33.465 53.3508L39.8032 56.5088C40.2426 56.7278 40.7285 56.8419 41.2206 56.8419H57.0659C57.558 56.8419 58.0439 56.7278 58.4833 56.5088L64.8215 53.3508C65.4342 53.0454 65.9325 52.5489 66.2389 51.9383L67.4428 49.5404L72.9113 54.9915V56.8419C72.9113 58.586 74.3287 60 76.0803 60H79.2494C81.0011 60 82.4185 58.586 82.4185 56.8419V54.1958L85.4235 45.2089C85.8042 44.0739 85.5071 42.8218 84.6591 41.9768L79.9364 37.2705L81.8305 33.4925L82.5825 35.7346C82.8456 36.5288 83.4181 37.1857 84.1701 37.5604L90.5082 40.7185C91.4924 41.2042 92.656 41.1564 93.5907 40.5797C94.5253 40.0045 95.0947 38.9883 95.0947 37.8935V25.2612C95.0947 24.7708 94.9802 24.2866 94.7605 23.8487ZM88.7566 32.7832L88.1779 32.4964L85.4235 24.2619C85.0181 23.0514 83.9225 22.2018 82.6444 22.1108C81.326 22.0445 80.1562 22.7076 79.5836 23.8487L73.2455 36.481C72.6358 37.6976 72.8741 39.1656 73.8397 40.1263L78.7914 45.0624L77.0707 50.2066L68.8138 41.9768C68.0958 41.2613 67.0838 40.9344 66.0656 41.0916C65.0598 41.2551 64.1932 41.8889 63.7383 42.7971L61.0427 48.1726L56.317 50.5258H41.9695L38.0515 48.5736V44.2096C38.0515 43.3723 37.7173 42.5689 37.1231 41.9768L30.7849 35.6606C29.8163 34.6984 28.3462 34.4655 27.1269 35.0685L22.8313 37.2088L22.2062 36.5858V34.7354C22.2062 33.1579 21.0394 31.8225 19.4704 31.6066L16.2332 31.161C14.8715 30.9821 13.5717 31.6698 12.9651 32.8772L9.97246 38.8449L9.84558 38.9899L6.36084 33.7793V31.5773C8.11249 31.5773 9.52991 30.1633 9.52991 28.4192V20.8972L14.1164 18.6119C14.2866 18.5271 14.4475 18.4269 14.5992 18.3128L25.7095 10.0105L27.4611 10.8833L25.7095 14.3744C25.2793 15.2318 25.2638 16.2357 25.6662 17.1069C26.0654 17.9766 26.8422 18.6181 27.7768 18.8509L40.4531 22.009C41.3165 22.2203 42.2326 22.0645 42.9784 21.5726L51.6872 15.7869H55.1069L57.4002 20.3575C58.1862 21.9196 60.0864 22.5503 61.6524 21.77L74.3287 15.4539C74.632 15.3012 74.9105 15.1023 75.1519 14.8617L81.1279 8.90794L84.8386 7.05751L82.7527 11.2164C82.3071 12.1061 82.3071 13.1516 82.7527 14.0414L88.7566 26.006V32.7832Z" fill="black"/>
</svg>
