<svg width="43" height="60" viewBox="0 0 43 60" fill="none" xmlns="http://www.w3.org/2000/svg">
<path d="M6.94821 59.891C6.35354 59.7412 5.63836 59.184 5.3678 58.6597C5.19723 58.3291 5.12306 57.969 5.125 57.4806C5.12753 56.8417 5.35281 56.216 7.59342 50.6251L10.0591 44.4728L10.6045 40.9572C10.9045 39.0236 11.1821 37.2833 11.2213 37.09L11.2926 36.7384L11.4375 37.2278C11.5172 37.4969 11.6973 37.9029 11.8377 38.1299C12.09 38.5379 13.5343 39.9022 15.0133 41.1296C15.4326 41.4775 15.8396 41.8184 15.9178 41.8871C16.0276 41.9833 15.9158 42.4941 15.4291 44.1212C14.595 46.91 9.97213 58.3997 9.42099 59.054C8.8057 59.7845 7.83282 60.1138 6.94821 59.891ZM24.223 59.82C23.651 59.6025 23.1648 59.1539 22.8307 58.5353C22.5805 58.0718 22.5772 57.9862 22.5433 50.909L22.5089 43.7514L18.3213 40.3035C16.0181 38.4072 13.8158 36.5346 13.4272 36.1422C12.6645 35.372 12.0965 34.4175 11.7994 33.4066C11.5822 32.6678 11.5483 30.7404 11.7348 29.7324C11.8464 29.1294 16.4781 13.1458 16.567 13.057C16.6777 12.9464 22.9573 14.5638 23.443 14.8279C23.8116 15.0284 25.0673 16.2421 27.263 18.5204C29.062 20.387 30.5511 21.9142 30.572 21.9142C30.5929 21.9142 32.1671 21.1368 34.0702 20.1866L37.5303 18.459V15.0001H40.1104V17.5783H40.4094C41.1897 17.5783 42.1502 18.4107 42.4133 19.315C42.8152 20.6965 42.1117 21.8731 40.4329 22.6273L40.1104 22.7721V60.0001H37.5303V42.0705C37.5303 32.2091 37.5069 24.1408 37.4782 24.1408C37.4496 24.1408 35.9323 24.8839 34.1066 25.7921L30.787 27.4434L29.9478 27.3924C28.8543 27.326 28.7956 27.2803 25.7388 24.1182C24.3871 22.72 23.2686 21.6126 23.2532 21.6573C23.2378 21.7019 22.6229 24.2151 21.8869 27.2421L20.5486 32.7458L23.3112 36.3241C24.8306 38.2922 26.2686 40.1134 26.5066 40.3712C26.7446 40.6291 27.0662 41.0509 27.2213 41.3087L27.5032 41.7775V58.1837L27.1776 58.7373C26.5904 59.7354 25.2717 60.2187 24.223 59.82ZM4.93558 29.6453C3.43221 29.3302 1.80319 28.6081 1.03553 27.9166C0.0211598 27.0029 -0.207813 25.8635 0.229648 23.9064C1.25912 19.3008 4.22382 15.105 7.56624 13.5234C9.04688 12.8228 9.92734 12.6398 12.1571 12.5693L14.0507 12.5094L13.2364 15.2489C11.3441 21.6158 9.46955 27.7294 9.32284 28.0129C9.04886 28.5423 8.29484 29.1756 7.65256 29.4157C6.91631 29.691 5.65996 29.7971 4.93558 29.6453ZM22.9294 12.4157C19.9468 12.0292 17.5934 9.33608 17.5934 6.30942C17.5934 4.52142 18.1473 3.17613 19.4003 1.92076C21.9566 -0.640253 25.6614 -0.640253 28.2177 1.92076C31.059 4.76726 30.4908 9.39506 27.0303 11.593C25.963 12.2709 24.3341 12.5977 22.9294 12.4157Z" fill="black"/>
</svg>
