<svg width="51" height="60" viewBox="0 0 51 60" fill="none" xmlns="http://www.w3.org/2000/svg">
<path d="M0.0183105 44.2105C0.0183105 47.0526 1.26926 49.5789 3.14568 51.1579V56.8421C3.14568 58.7368 4.39663 60 6.27305 60H9.40042C11.2768 60 12.5278 58.7368 12.5278 56.8421V53.6842H37.5467V56.8421C37.5467 58.7368 38.7977 60 40.6741 60H43.8015C45.6779 60 46.9288 58.7368 46.9288 56.8421V51.1579C48.8053 49.5789 50.0562 47.0528 50.0562 44.2105V12.6316C50.0562 1.57895 38.7977 0 25.0373 0C11.2768 0 0.0183105 1.57895 0.0183105 12.6316V44.2105ZM10.9641 47.3684C8.46221 47.3684 6.27305 45.1579 6.27305 42.6316C6.27305 40.1053 8.46221 37.8947 10.9641 37.8947C13.466 37.8947 15.6552 40.1053 15.6552 42.6316C15.6552 45.1579 13.466 47.3684 10.9641 47.3684ZM39.1104 47.3684C36.6085 47.3684 34.4194 45.1579 34.4194 42.6316C34.4194 40.1053 36.6085 37.8947 39.1104 37.8947C41.6123 37.8947 43.8015 40.1053 43.8015 42.6316C43.8015 45.1579 41.6123 47.3684 39.1104 47.3684ZM43.8015 28.4211H6.27305V12.6316H43.8015V28.4211Z" fill="black"/>
</svg>
