<svg width="90" height="60" viewBox="0 0 90 60" fill="none" xmlns="http://www.w3.org/2000/svg">
<path d="M47.7725 21.3856C47.6773 18.7435 46.7738 16.1926 45.1818 14.0711C43.5898 11.9495 41.3846 10.3577 38.8586 9.50673C38.4147 6.85101 37.0338 4.43768 34.9619 2.69665C32.8899 0.955633 30.2615 0 27.5449 0C24.8283 0 22.1999 0.955633 20.128 2.69665C18.056 4.43768 16.6751 6.85101 16.2313 9.50673C13.7045 10.3569 11.4985 11.9485 9.90593 14.0701C8.31337 16.1917 7.40962 18.7431 7.31463 21.3856C4.81877 22.3835 2.7485 24.2069 1.45549 26.5459C0.16249 28.8848 -0.273516 31.5952 0.221539 34.2167C0.716594 36.8381 2.11218 39.2088 4.17124 40.9263C6.2303 42.6437 8.82585 43.6018 11.517 43.638H24.7929V54.546H16.5367C15.8069 54.546 15.1069 54.8333 14.5907 55.3447C14.0746 55.8561 13.7847 56.5497 13.7847 57.273C13.7847 57.9962 14.0746 58.6899 14.5907 59.2013C15.1069 59.7127 15.8069 60 16.5367 60H38.5531C39.283 60 39.983 59.7127 40.4991 59.2013C41.0152 58.6899 41.3052 57.9962 41.3052 57.273C41.3052 56.5497 41.0152 55.8561 40.4991 55.3447C39.983 54.8333 39.283 54.546 38.5531 54.546H30.297V43.638H43.5701C46.2613 43.6018 48.8568 42.6437 50.9159 40.9263C52.9749 39.2088 54.3705 36.8381 54.8656 34.2167C55.3606 31.5952 54.9246 28.8848 53.6316 26.5459C52.3386 24.2069 50.2683 22.3835 47.7725 21.3856ZM43.5701 38.1839H30.297V33.8589L37.7468 26.4769C38.2481 25.9626 38.5255 25.2737 38.5192 24.5587C38.5129 23.8437 38.2235 23.1597 37.7132 22.6541C37.203 22.1485 36.5127 21.8617 35.7912 21.8555C35.0696 21.8493 34.3744 22.1242 33.8554 22.6209L30.297 26.1469V19.0949C30.297 18.3716 30.007 17.678 29.4909 17.1666C28.9748 16.6552 28.2748 16.3679 27.5449 16.3679C26.815 16.3679 26.115 16.6552 25.5989 17.1666C25.0828 17.678 24.7929 18.3716 24.7929 19.0949V26.1469L21.2345 22.6209C20.7154 22.1242 20.0203 21.8493 19.2987 21.8555C18.5771 21.8617 17.8869 22.1485 17.3766 22.6541C16.8664 23.1597 16.5769 23.8437 16.5707 24.5587C16.5644 25.2737 16.8418 25.9626 17.3431 26.4769L24.7929 33.8589V38.1839H11.517C9.99261 38.1489 8.53609 37.5522 7.43169 36.5104C6.32729 35.4686 5.65424 34.0565 5.54389 32.5495C5.43355 31.0425 5.89381 29.5489 6.83488 28.36C7.77594 27.1712 9.13028 26.3724 10.6336 26.1197C10.9916 26.0658 11.3354 25.9424 11.6452 25.7566C11.9551 25.5708 12.2248 25.3262 12.4391 25.0369C12.6533 24.7476 12.8079 24.4192 12.8938 24.0706C12.9797 23.722 12.9953 23.36 12.9398 23.0054C12.7731 22.0307 12.8036 21.0328 13.0295 20.0699C13.2555 19.1069 13.6724 18.1981 14.256 17.3963C14.8396 16.5944 15.5783 15.9155 16.429 15.3991C17.2798 14.8827 18.2257 14.539 19.2117 14.3881C19.8663 14.2944 20.4649 13.9702 20.898 13.4749C21.3311 12.9797 21.5698 12.3464 21.5702 11.6911C21.5702 11.6202 21.5702 11.5274 21.5565 11.4347C21.555 10.6555 21.7085 9.88356 22.0081 9.16307C22.3077 8.44258 22.7476 7.78762 23.3027 7.23558C24.4237 6.1207 25.9457 5.49274 27.5339 5.48985C29.1222 5.48696 30.6465 6.10937 31.7716 7.22016C32.8967 8.33095 33.5305 9.83912 33.5334 11.4129C33.5334 11.462 33.5334 11.5111 33.5334 11.5465C33.4974 12.2256 33.7188 12.8935 34.1541 13.4192C34.5895 13.9448 35.2073 14.2904 35.8864 14.3881C36.8733 14.539 37.8201 14.8829 38.6716 15.3998C39.5231 15.9167 40.2623 16.5963 40.8463 17.399C41.4302 18.2017 41.8472 19.1115 42.0729 20.0754C42.2986 21.0393 42.3286 22.0381 42.1611 23.0136C42.0513 23.7285 42.2326 24.4574 42.6651 25.0398C43.0976 25.6223 43.7458 26.0107 44.4673 26.1197C45.9714 26.373 47.3262 27.1729 48.267 28.3631C49.2078 29.5533 49.667 31.0483 49.5549 32.556C49.4427 34.0638 48.7674 35.476 47.6607 36.5167C46.554 37.5574 45.0955 38.1518 43.5701 38.1839Z" fill="black"/>
<path d="M52.3957 60V50H29.0447L45.724 33.3333H35.7164L52.3957 16.6667H42.3881L59.0674 0L75.7467 16.6667H65.7391L82.4184 33.3333H72.4109L89.0902 50H65.7391V60H52.3957Z" fill="black"/>
</svg>
