<svg width="66" height="66" viewBox="0 0 66 66" fill="none" xmlns="http://www.w3.org/2000/svg">
<path d="M3.01831 44.9084L5.92621 47.344C9.01852 49.9339 13.4764 49.6751 16.2766 46.7436C19.1482 43.7374 23.7464 43.5527 26.8297 46.3193L27.4288 46.8568C30.6583 49.7551 35.4239 49.7551 38.6533 46.8568L39.2524 46.3193C42.3358 43.5527 46.9339 43.7374 49.8054 46.7436C52.6055 49.6751 57.0636 49.9339 60.1559 47.344L63.0638 44.9084M61.3959 58.8779L59.9201 60.4229C57.0506 63.427 52.3977 63.427 49.5282 60.4229C46.8132 57.5805 42.4655 57.4055 39.55 60.0216L38.6533 60.8263C35.4239 63.7246 30.6583 63.7246 27.4288 60.8263L26.5321 60.0216C23.6167 57.4055 19.269 57.5805 16.5539 60.4229C13.6843 63.427 9.03167 63.427 6.16199 60.4229L4.68624 58.8779M43.0486 23.3379C43.0486 32.528 36.3769 34.4313 33.0411 34.4313C29.7052 34.4313 23.0335 32.528 23.0335 23.3379C23.0335 14.1478 33.0411 3 33.0411 3C33.0411 3 43.0486 14.1478 43.0486 23.3379Z" stroke="black" stroke-width="5" stroke-linecap="round" stroke-linejoin="round"/>
</svg>
